<svg width="1048" height="1132" viewBox="0 0 1048 1132" fill="none" xmlns="http://www.w3.org/2000/svg">
<path d="M1046.61 487.303V711.586C1046.61 718.345 1044.84 724.988 1041.46 730.838C1038.08 736.691 1033.22 741.55 1027.37 744.921L833.372 857.063C827.536 860.445 820.912 862.226 814.168 862.226C807.424 862.226 800.799 860.445 794.963 857.063L755.551 834.314C749.707 830.934 743.08 829.156 736.333 829.156C729.586 829.156 722.959 830.934 717.115 834.314C711.271 837.691 706.419 842.55 703.047 848.403C699.672 854.256 697.897 860.893 697.897 867.65V913.147C697.894 919.904 696.116 926.541 692.744 932.391C689.369 938.244 684.52 943.103 678.679 946.482L368.532 1125.87C362.688 1129.25 356.053 1131.04 349.301 1131.04C342.549 1131.04 335.913 1129.25 330.069 1125.87L19.8958 946.482C14.0584 943.097 9.21087 938.238 5.83821 932.388C2.46555 926.535 0.686006 919.901 0.677673 913.147L0.677673 823.211C0.709672 816.479 2.50044 809.872 5.87193 804.049C9.2434 798.223 14.0782 793.386 19.8958 790.011L97.6356 745.057C103.48 741.68 108.334 736.821 111.708 730.971C115.082 725.118 116.856 718.478 116.854 711.721L116.854 487.303C116.856 480.549 115.085 473.912 111.716 468.062C108.347 462.209 103.501 457.35 97.6627 453.967L19.8958 408.932C14.0529 405.552 9.20081 400.693 5.82734 394.843C2.45385 388.99 0.677787 382.353 0.677673 375.596L0.677673 151.313C0.677782 144.553 2.45679 137.913 5.83545 132.06C9.21409 126.208 14.0731 121.351 19.9229 117.978L213.893 5.83651C219.733 2.45003 226.363 0.666748 233.111 0.666748C239.86 0.666748 246.489 2.45003 252.329 5.83651L446.327 117.978C452.176 121.353 458.809 123.13 465.558 123.13C472.308 123.13 478.94 121.353 484.79 117.978L562.638 73.0236C568.482 69.6346 575.118 67.8503 581.87 67.8503C588.622 67.8503 595.257 69.6346 601.101 73.0236L794.936 185.165C800.785 188.538 805.646 193.395 809.023 199.247C812.403 205.1 814.181 211.741 814.181 218.501V308.409C814.181 315.163 815.954 321.798 819.323 327.648C822.69 333.5 827.536 338.359 833.372 341.745L1027.4 453.967C1033.24 457.35 1038.08 462.209 1041.46 468.062C1044.83 473.912 1046.61 480.546 1046.61 487.303V487.303Z" stroke="#0CE8F6" stroke-width="1.13695" stroke-linecap="round" stroke-linejoin="round"/>
<path d="M44.9145 138.853L178.032 61.8936C178.384 61.6765 228.53 32.7928 228.937 32.7657C240.24 26.3591 253.332 28.2322 265.394 32.7657C265.665 32.7657 302.204 53.8855 302.475 54.0212L435.592 130.981L449.417 138.935C455.008 141.963 461.259 143.566 467.618 143.604C473.977 143.642 480.244 142.113 485.874 139.152C486.443 139.152 559.223 97.3467 559.738 97.0481C565.286 93.8364 571.569 92.1183 577.977 92.0613C584.385 92.0043 590.698 93.61 596.304 96.7223C596.927 96.7223 666.101 136.329 666.779 136.654L781.139 202.756C786.715 205.975 791.366 210.584 794.638 216.135C797.91 221.686 799.693 227.99 799.815 234.435C800.167 234.924 800.357 296.519 800.357 297.116C800.357 297.333 800.357 320.028 800.357 320.245C801.983 333.275 807.405 345.518 818.654 352.196C818.898 352.495 852.617 372.094 852.943 372.284L949.711 428.26C950.226 428.558 1003.33 459.505 1003.54 460.048C1009.06 463.365 1013.63 468.062 1016.8 473.676C1019.97 479.289 1021.63 485.631 1021.62 492.081V651.294C1021.62 651.647 1021.62 704.202 1021.41 704.528C1021.36 710.926 1019.66 717.205 1016.47 722.748C1013.27 728.291 1008.7 732.912 1003.19 736.153C1002.97 736.425 957.517 762.784 957.111 762.946L819.386 842.567C813.829 845.786 807.538 847.507 801.119 847.564C794.7 847.621 788.376 846.011 782.765 842.892C782.386 842.892 745.413 821.854 745.061 821.718C735.709 817.891 726.737 815.583 718.118 817.646C703.02 821.202 689.738 834.124 689.738 851.742L689.467 862.6V894.606C689.486 901.021 687.854 907.332 684.723 912.93C681.595 918.527 677.077 923.221 671.604 926.557C671.604 927.453 587.115 976.751 586.356 977.212L376.745 1098.45C371.191 1101.66 364.903 1103.38 358.492 1103.43C352.079 1103.49 345.761 1101.88 340.152 1098.77C339.529 1098.77 271.33 1059.71 270.761 1059.38L44.9145 928.81C39.3651 925.607 34.74 921.017 31.4906 915.487C28.2411 909.957 26.4783 903.681 26.3741 897.266C25.9404 896.778 25.6964 812.651 25.6964 811.973C25.7035 805.566 27.3645 799.268 30.518 793.695C33.6718 788.119 38.2107 783.456 43.6947 780.157C43.9116 779.533 116.528 737.266 117.098 736.913C122.654 733.715 127.286 729.125 130.54 723.595C133.795 718.068 135.561 711.787 135.665 705.369C136.099 704.881 136.316 625.043 136.316 624.392V492.108C136.326 485.669 134.67 479.336 131.511 473.727C128.353 468.119 123.798 463.425 118.29 460.102C118.046 459.56 64.9458 428.558 64.4308 428.26L44.3724 416.56C33.9366 408.633 26.0759 397.829 25.9404 384.717C25.7777 384.391 25.6964 345.437 25.6964 345.057L25.6964 233.187C25.6964 232.562 25.9132 170.995 26.2656 170.533C26.3789 164.09 28.156 157.785 31.4241 152.233C34.6923 146.682 39.3396 142.072 44.9145 138.853V138.853Z" stroke="#1CD9EC" stroke-width="1.38708" stroke-linecap="round" stroke-linejoin="round"/>
<path d="M69.9063 159.729L195.759 86.9225C196.464 86.5153 243.168 59.7762 243.981 59.6405C254.688 53.7226 266.967 55.4599 278.459 59.6405C279.002 59.8305 313.047 79.2944 313.562 79.593L439.415 152.345L452.48 159.865C457.771 162.704 463.669 164.222 469.673 164.288C475.674 164.354 481.605 162.967 486.958 160.245C488.097 160.38 555.916 121.615 556.973 121.018C562.226 117.98 568.162 116.328 574.226 116.219C580.292 116.11 586.283 117.546 591.642 120.394C592.916 120.15 657.482 156.906 658.648 157.584L767.071 220.319C772.381 223.378 776.829 227.738 779.995 232.989C783.164 238.241 784.948 244.212 785.178 250.343C785.883 251.293 786.289 308.762 786.289 310.065C786.289 310.526 786.289 331.782 786.452 332.135C788.024 344.514 793.201 356.186 803.827 362.647C804.288 363.245 835.704 381.65 836.354 382.003L928.514 435.372C929.571 435.997 979.013 465.07 979.473 466.156C984.697 469.389 989.009 473.904 992.007 479.27C995.005 484.637 996.585 490.683 996.604 496.831V647.222C996.604 647.955 996.469 696.845 996.198 697.497C996.095 703.529 994.46 709.433 991.452 714.659C988.44 719.882 984.149 724.252 978.986 727.358C978.552 727.901 936.321 752.468 935.616 752.848L805.508 828.043C800.233 831.097 794.272 832.761 788.179 832.881C782.088 832.997 776.065 831.567 770.676 828.722C769.917 828.722 735.439 809.367 734.653 809.095C725.789 805.512 717.223 803.177 709.065 805.023C695.105 808.172 681.66 819.547 681.66 835.807L681.145 845.743V876.337C681.175 882.412 679.679 888.4 676.795 893.745C673.911 899.093 669.731 903.627 664.638 906.93C664.475 908.695 586.031 955.061 584.486 955.957L385.067 1071.27C379.814 1074.32 373.872 1075.98 367.803 1076.1C361.734 1076.21 355.733 1074.78 350.372 1071.93C349.098 1072.17 285.317 1035.88 284.287 1035.22L69.7708 911.165C64.5065 908.117 60.104 903.776 56.979 898.55C53.8536 893.327 52.1086 887.39 51.908 881.304C51.0677 880.327 50.5527 801.983 50.5527 800.626C50.5529 794.553 52.0923 788.581 55.0271 783.268C57.9618 777.956 62.1955 773.476 67.3313 770.249C67.765 769.027 135.259 729.529 136.424 728.769C141.695 725.726 146.104 721.386 149.235 716.163C152.365 710.937 154.113 704.997 154.314 698.908C155.155 697.904 155.642 623.523 155.642 622.193V496.831C155.652 490.696 154.109 484.659 151.155 479.287C148.202 473.912 143.935 469.376 138.755 466.102C138.295 465.016 88.8263 435.942 87.7962 435.318C87.4168 435.101 69.0931 424.459 68.8221 424.079C58.9013 416.506 51.4201 406.19 51.1219 393.757C50.8237 393.051 50.6611 356.702 50.6611 355.942V249.257C50.6611 248.036 51.0677 190.567 51.7995 189.535C52.0671 183.442 53.8669 177.515 57.0324 172.304C60.1978 167.094 64.6261 162.768 69.9063 159.729V159.729Z" stroke="#2DCBE2" stroke-width="1.61447" stroke-linecap="round" stroke-linejoin="round"/>
<path d="M94.8978 180.604L213.459 112.06C214.543 111.436 257.805 86.7324 258.997 86.651C269.135 81.2217 280.682 82.7962 291.524 86.7867C292.338 87.0853 323.889 105.002 324.675 105.463L443.209 173.981C443.507 174.143 455.271 180.903 455.57 181.039C460.554 183.714 466.106 185.163 471.76 185.267C477.417 185.371 483.017 184.126 488.097 181.636C489.831 181.853 552.69 146.183 554.235 145.287C559.187 142.399 564.782 140.796 570.51 140.625C576.24 140.455 581.918 141.721 587.033 144.31C588.931 143.957 648.916 177.781 650.651 178.785L753.355 238.154C758.389 241.067 762.623 245.182 765.683 250.132C768.743 255.081 770.532 260.712 770.893 266.522C771.95 267.934 772.574 321.303 772.574 323.122C772.574 323.801 772.709 343.455 772.817 344.106C774.363 355.861 779.296 366.964 789.271 373.234C789.948 374.13 819.087 391.259 820.09 391.829L907.832 442.539C909.404 443.462 955.186 470.635 955.864 472.264C960.716 475.473 964.698 479.84 967.446 484.971C970.195 490.104 971.626 495.84 971.613 501.663V643.421C971.613 644.507 971.396 689.76 971.016 690.737C970.862 696.414 969.292 701.965 966.452 706.878C963.611 711.795 959.591 715.924 954.753 718.888C954.102 719.702 915.07 742.505 914.094 743.048L791.656 813.819C786.666 816.72 781.033 818.333 775.265 818.515C769.497 818.694 763.775 817.434 758.614 814.85C757.475 815.013 725.355 797.205 724.298 796.771C715.895 793.432 707.763 791.097 700.038 792.726C687.217 795.44 673.61 805.295 673.61 820.225L672.851 829.129V857.877C672.74 866.382 669.728 874.591 664.312 881.141C662.361 883.394 660.138 885.401 657.699 887.113C657.427 889.828 584.946 933.262 582.642 934.511L393.443 1043.94C388.477 1046.82 382.871 1048.41 377.136 1048.57C371.4 1048.74 365.713 1047.47 360.59 1044.89C358.693 1045.24 299.575 1011.88 297.84 1010.87L94.8165 893.439C89.852 890.585 85.6775 886.538 82.6717 881.66C79.6659 876.782 77.9241 871.227 77.6042 865.505C76.3302 864.039 75.5984 791.477 75.5984 789.495C75.5805 783.768 76.9919 778.124 79.7041 773.08C82.4166 768.036 86.344 763.75 91.1301 760.612C91.7806 758.766 154.151 721.847 155.886 720.842C160.858 717.989 165.039 713.936 168.049 709.053C171.06 704.169 172.805 698.612 173.126 692.882C174.372 691.416 175.104 622.491 175.104 620.483V501.745C175.107 495.927 173.673 490.197 170.93 485.069C168.187 479.938 164.22 475.568 159.383 472.345C158.678 470.717 112.896 443.516 111.297 442.484C110.728 442.132 93.7051 432.115 93.1901 431.626C83.8115 424.405 76.7097 414.578 76.276 402.797C75.8152 401.765 75.5984 368.022 75.5984 366.855L75.5984 265.545C75.5984 263.726 76.1947 210.384 77.2518 208.972C77.6067 203.147 79.4059 197.503 82.4871 192.55C85.5682 187.597 89.8336 183.491 94.8978 180.604V180.604Z" stroke="#3DBCD8" stroke-width="1.8646" stroke-linecap="round" stroke-linejoin="round"/>
<path d="M119.889 201.48L231.186 137.143C232.596 136.302 272.442 113.716 274.041 113.58C283.582 108.585 294.452 110.078 304.589 113.77C305.701 114.177 334.731 130.547 335.761 131.144L447.031 195.508L458.632 202.131C463.306 204.62 468.494 205.987 473.787 206.124C479.078 206.26 484.332 205.163 489.127 202.919C491.431 203.19 549.329 170.614 551.47 169.42C556.13 166.708 561.378 165.172 566.761 164.945C572.144 164.719 577.5 165.807 582.371 168.117C584.919 167.655 640.297 198.548 642.601 199.878L739.45 255.854C744.226 258.602 748.265 262.467 751.225 267.119C754.185 271.77 755.974 277.071 756.445 282.566C757.882 284.439 758.668 333.709 758.668 336.152C758.668 337.048 758.885 355.155 758.993 356.051C760.511 367.208 765.201 377.768 774.552 383.794C775.447 384.989 802.282 400.869 803.61 401.656L886.933 449.841C889.048 451.063 931.17 476.363 932.092 478.535C936.608 481.689 940.294 485.894 942.834 490.786C945.374 495.68 946.691 501.115 946.675 506.631V639.349C946.675 640.815 946.404 682.376 945.862 683.679C945.667 688.992 944.178 694.177 941.522 698.781C938.868 703.385 935.128 707.269 930.628 710.092C929.788 711.205 893.954 732.244 892.68 732.95L777.859 799.322C773.154 802.061 767.852 803.617 762.414 803.853C756.974 804.089 751.558 803.001 746.633 800.68C745.142 800.897 715.407 784.745 714.106 784.175C706.191 781.053 698.466 778.745 691.201 780.157C679.519 782.465 665.749 790.744 665.749 804.317L664.719 812.244V839.58C664.795 844.985 663.589 850.327 661.192 855.173C658.799 860.016 655.286 864.218 650.949 867.432C650.597 870.961 584.052 911.436 580.962 913.228L402.062 1016.74C397.397 1019.46 392.139 1021 386.745 1021.22C381.353 1021.45 375.984 1020.36 371.107 1018.04C368.587 1018.5 313.968 988.016 311.664 986.686L120.106 875.875C115.435 873.198 111.487 869.422 108.606 864.87C105.724 860.32 103.996 855.132 103.572 849.76C101.864 847.778 100.861 781.026 100.861 778.311C100.845 772.92 102.14 767.607 104.633 762.83C107.127 758.055 110.744 753.955 115.173 750.893C116.04 748.45 173.288 714.219 175.592 712.889C180.271 710.206 184.225 706.42 187.111 701.859C189.997 697.298 191.728 692.103 192.154 686.72C193.862 684.765 194.865 621.297 194.865 618.637V506.55C194.877 501.039 193.557 495.607 191.018 490.721C188.478 485.832 184.795 481.632 180.282 478.48C179.387 476.309 137.237 450.981 135.123 449.76C134.337 449.298 118.67 439.987 117.992 439.471C109.128 432.549 102.379 423.183 101.728 412.108C101.132 410.75 100.834 379.532 100.834 378.039V281.724C100.834 279.281 101.62 230.146 103.057 228.192C103.503 222.71 105.267 217.417 108.198 212.766C111.129 208.115 115.14 204.242 119.889 201.48V201.48Z" stroke="#4EADCE" stroke-width="2.11473" stroke-linecap="round" stroke-linejoin="round"/>
<path d="M144.881 222.355L248.887 162.226C250.676 161.195 287.079 140.672 289.085 140.509C298.003 136.003 308.059 137.36 317.655 140.753C319.037 141.242 345.574 156.064 346.848 156.824L450.853 216.926C451.341 217.224 461.208 222.844 461.696 223.088C466.057 225.411 470.887 226.708 475.823 226.882C480.759 227.056 485.671 226.102 490.184 224.092C493.084 224.418 545.995 194.937 548.597 193.444C552.967 190.899 557.873 189.427 562.92 189.149C567.967 188.871 573.006 189.794 577.628 191.843C580.826 191.245 631.596 219.206 634.55 220.862L725.572 273.472C730.085 276.061 733.926 279.68 736.786 284.034C739.643 288.386 741.437 293.351 742.025 298.528C743.787 300.862 744.736 346.006 744.736 349.047C744.736 350.16 744.98 366.8 745.142 367.886C746.866 378.077 752.033 387.364 759.78 394.191C761.135 395.494 785.449 410.479 787.102 411.32L865.926 456.926C868.637 458.446 907.046 481.874 908.212 484.588C912.386 487.686 915.774 491.72 918.105 496.37C920.436 501.02 921.643 506.153 921.629 511.354V635.277C921.629 637.069 921.006 674.911 920.626 676.621C918.607 686.152 913.614 694.793 906.369 701.297C905.095 702.491 872.703 721.928 871.131 722.851L763.954 784.799C759.527 787.381 754.551 788.879 749.436 789.172C744.321 789.465 739.209 788.542 734.517 786.482C732.647 786.754 705.351 772.23 703.589 771.552C696.135 768.674 688.843 766.285 681.904 767.534C671.36 769.461 657.509 776.166 657.509 788.382L656.208 795.305V821.094C656.051 828.616 653.622 835.913 649.242 842.023C647.631 844.059 645.813 845.924 643.82 847.588C643.387 851.986 582.778 889.502 578.929 891.728L410.167 989.455C405.771 991.985 400.835 993.435 395.771 993.684C390.705 993.934 385.653 992.978 381.028 990.894C377.884 991.491 327.792 963.91 324.919 962.227L144.827 858.067C140.436 855.548 136.707 852.019 133.95 847.77C131.192 843.522 129.485 838.676 128.97 833.635C126.829 831.165 125.609 770.167 125.609 766.801C125.587 761.746 126.765 756.762 129.046 752.253C131.327 747.747 134.646 743.846 138.728 740.876C139.785 737.809 191.883 706.238 194.783 704.582C199.175 702.062 202.905 698.531 205.667 694.285C208.429 690.037 210.143 685.191 210.667 680.15C212.782 677.68 213.974 619.668 213.974 616.329L213.974 511.382C213.979 506.167 212.754 501.025 210.399 496.372C208.044 491.722 204.625 487.694 200.421 484.615C199.283 481.901 160.792 458.446 158.163 456.926C157.187 456.383 142.848 447.805 141.9 447.126C133.955 440.527 128.519 431.392 126.503 421.256C126.043 419.464 125.365 390.988 125.365 389.088V297.903C125.365 294.863 126.368 249.746 128.076 247.384C128.705 242.179 130.556 237.198 133.476 232.848C136.398 228.498 140.306 224.902 144.881 222.355V222.355Z" stroke="#5E9FC4" stroke-width="2.36486" stroke-linecap="round" stroke-linejoin="round"/>
<path d="M169.873 243.231L266.587 187.364C268.755 186.115 301.825 167.71 304.102 167.52C312.45 163.448 321.91 164.805 330.72 167.791C332.373 168.361 356.416 181.663 357.961 182.559L454.675 238.399C455.244 238.752 464.189 243.828 464.786 244.127C468.849 246.252 473.329 247.461 477.908 247.667C482.488 247.874 487.059 247.073 491.295 245.321C494.765 245.728 542.796 219.342 545.859 217.523C549.933 215.156 554.493 213.752 559.19 213.418C563.888 213.084 568.599 213.829 572.965 215.596C576.76 214.89 622.949 239.892 626.391 241.901L711.721 291.144C715.968 293.576 719.603 296.945 722.357 300.995C725.108 305.043 726.903 309.668 727.605 314.517C729.719 317.231 730.939 358.385 730.939 362.023C730.939 363.38 731.21 378.501 731.427 379.804C733.075 389.416 737.905 398.195 745.142 404.724C746.742 406.271 768.752 419.953 770.73 421.012L845.001 464.256C848.145 466.075 882.949 487.602 884.359 490.859C888.202 493.897 891.303 497.77 893.431 502.187C895.559 506.604 896.654 511.447 896.637 516.349V631.423C896.637 633.594 895.878 667.744 895.418 669.78C893.477 678.624 888.847 686.646 882.163 692.746C880.645 694.158 851.479 711.884 849.636 712.97L750.103 770.52C745.95 772.936 741.301 774.372 736.509 774.72C731.719 775.067 726.914 774.318 722.455 772.529C720.205 772.882 695.349 759.987 693.207 759.173C686.214 756.458 679.41 754.124 672.986 755.155C663.581 756.703 649.513 761.833 649.513 772.692L647.968 778.61V802.851C647.968 808.633 645.257 818.27 641.76 822.614C640.305 824.563 638.681 826.379 636.908 828.043C636.393 833.309 581.748 867.894 577.113 870.554L418.543 962.281C414.472 964.651 409.912 966.057 405.212 966.391C400.515 966.725 395.804 965.979 391.437 964.209C387.642 964.915 342.077 940.239 338.634 938.23L169.873 840.503C165.789 838.169 162.296 834.925 159.664 831.024C157.031 827.12 155.331 822.665 154.694 817.999C152.118 815.04 150.655 759.824 150.655 755.807C150.632 751.094 151.694 746.436 153.758 742.201C155.821 737.963 158.831 734.258 162.554 731.375C163.828 727.683 210.803 698.8 214.3 696.791C218.396 694.445 221.899 691.188 224.54 687.273C227.182 683.356 228.89 678.885 229.533 674.205C232.054 671.246 233.518 618.718 233.518 614.7L233.518 516.187C233.535 511.287 232.438 506.449 230.311 502.038C228.183 497.624 225.081 493.756 221.239 490.723C219.883 487.466 185.025 465.912 181.881 464.093C180.715 463.414 167.732 455.569 166.701 454.755C159.228 448.478 154.066 439.878 152.037 430.323C151.495 428.178 150.682 402.308 150.682 400.028V314.11C150.682 310.445 151.875 269.427 154.016 266.604C154.714 261.758 156.505 257.135 159.252 253.085C162 249.036 165.632 245.666 169.873 243.231V243.231Z" stroke="#6F90BA" stroke-width="2.59225" stroke-linecap="round" stroke-linejoin="round"/>
<path d="M194.865 264.106L284.314 212.528C286.808 211.09 316.353 194.747 319.145 194.53C326.898 190.947 335.626 192.06 343.785 194.856C345.709 195.508 367.231 207.289 369.047 208.429L458.497 260.007C459.175 260.387 467.171 264.921 467.876 265.246C471.616 267.184 475.72 268.311 479.924 268.554C484.126 268.798 488.333 268.152 492.271 266.658C496.31 267.119 539.327 243.828 542.959 241.738C546.749 239.521 550.98 238.17 555.352 237.781C559.724 237.391 564.129 237.973 568.249 239.485C572.694 238.643 614.329 260.713 618.314 263.047L697.626 308.925C701.616 311.2 705.058 314.321 707.709 318.076C710.36 321.827 712.154 326.116 712.968 330.642C715.461 333.926 716.871 370.845 716.871 375.107C716.871 376.682 717.196 390.309 717.413 391.802C719.031 400.823 723.531 409.073 730.234 415.311C732.077 417.157 751.756 429.617 754.087 430.974L823.939 471.368C827.626 473.513 858.798 493.085 860.424 496.967C863.921 499.94 866.729 503.642 868.648 507.817C870.567 511.99 871.554 516.531 871.537 521.127V627.378C871.537 629.929 870.67 660.388 870.101 662.668C868.241 670.812 863.983 678.206 857.876 683.896C856.087 685.579 830.174 701.541 828.059 702.899L736.116 755.915C732.24 758.179 727.917 759.564 723.449 759.971C718.98 760.378 714.477 759.8 710.257 758.277C707.546 758.684 685.184 747.419 682.717 746.496C676.185 744.052 669.815 741.636 663.743 742.505C655.476 743.672 641.245 747.201 641.245 756.703L639.429 761.616V784.31C639.429 789.387 637.098 799.051 634.008 802.906C632.699 804.73 631.268 806.462 629.725 808.091C629.102 814.198 580.42 845.851 575.025 848.973L426.675 934.782C422.872 937.006 418.63 938.363 414.244 938.759C409.858 939.153 405.44 938.575 401.303 937.063C396.885 937.877 355.874 916.078 351.835 913.771L194.621 822.858C190.837 820.678 187.577 817.695 185.072 814.117C182.566 810.536 180.875 806.451 180.119 802.145C177.11 798.698 175.403 749.265 175.403 744.568C175.393 740.19 176.344 735.862 178.19 731.894C180.035 727.925 182.73 724.412 186.082 721.602C187.573 717.313 229.452 691.117 233.491 688.755C237.337 686.581 240.652 683.576 243.197 679.963C245.743 676.347 247.455 672.213 248.209 667.853C251.164 664.405 252.844 617.334 252.844 612.664L252.844 521.019C252.868 516.423 251.885 511.878 249.965 507.703C248.045 503.528 245.234 499.828 241.731 496.858C240.132 493.058 208.96 473.377 205.273 471.26C203.918 470.472 192.262 463.333 191.043 462.383C184.067 456.459 179.198 448.429 177.164 439.498C176.487 437.001 175.565 413.764 175.565 411.076L175.565 330.289C175.565 326.027 176.975 289.108 179.468 285.823C180.289 281.295 182.094 277.003 184.754 273.249C187.415 269.497 190.866 266.375 194.865 264.106V264.106Z" stroke="#7F82B0" stroke-width="2.84238" stroke-linecap="round" stroke-linejoin="round"/>
<path d="M219.856 285.09L302.014 237.584C304.888 235.928 331.072 222.22 334.162 221.432C341.603 219.357 349.482 219.489 356.85 221.812C359.072 222.545 378.074 232.671 380.161 233.974L462.292 281.48C463.078 281.914 470.153 285.905 470.939 286.285C474.392 288.055 478.168 289.108 482.039 289.382C485.909 289.659 489.794 289.149 493.464 287.886C498.099 288.429 536.156 268.205 540.303 265.817C543.791 263.743 547.678 262.429 551.709 261.962C555.74 261.494 559.824 261.882 563.695 263.102C568.764 262.152 605.737 281.29 610.372 283.95L683.856 326.434C687.577 328.562 690.817 331.445 693.359 334.901C695.904 338.354 697.699 342.304 698.629 346.495C701.475 350.269 703.074 383.061 703.074 387.948C703.074 389.739 703.453 401.847 703.724 403.584C705.283 412.016 709.444 419.744 715.624 425.681C717.711 427.798 735.086 439.037 737.743 440.584L803.122 478.399C807.323 480.842 834.863 498.623 836.679 502.966C839.842 505.868 842.363 509.4 844.082 513.339C845.8 517.275 846.676 521.526 846.654 525.824V623.225C846.654 626.129 845.705 652.923 845.028 655.637C843.212 663.111 839.276 669.897 833.698 675.183C831.692 677.11 808.977 691.307 806.592 692.746L722.292 741.474C718.695 743.583 714.7 744.916 710.558 745.383C706.416 745.85 702.223 745.443 698.249 744.188C695.267 744.65 675.236 735.013 672.39 733.981C666.345 731.755 660.436 729.339 654.852 729.991C647.751 730.832 633.357 732.705 633.357 740.849L631.27 744.758V765.905C631.27 770.249 629.183 779.967 626.635 783.333C625.486 785.054 624.247 786.713 622.922 788.301C622.244 795.305 579.552 824.026 573.345 827.582L435.105 907.5C431.6 909.572 427.699 910.886 423.655 911.352C419.611 911.819 415.515 911.434 411.631 910.215C406.562 911.138 370.077 892.271 365.551 889.611L219.856 805.322C216.343 803.313 213.294 800.579 210.912 797.303C208.529 794.029 206.866 790.285 206.032 786.319C202.617 782.356 200.611 738.732 200.611 733.357C200.593 729.312 201.426 725.311 203.056 721.611C204.686 717.911 207.076 714.596 210.071 711.884C211.752 706.944 248.507 683.435 253.142 680.775C256.665 678.763 259.726 676.032 262.126 672.758C264.527 669.484 266.213 665.741 267.075 661.772C270.436 657.836 272.361 616.194 272.361 610.873V525.824C272.379 521.535 271.504 517.289 269.791 513.358C268.078 509.427 265.565 505.898 262.413 502.994C260.597 498.65 233.057 480.842 228.855 478.399C227.283 477.503 216.956 471.097 215.601 469.984C209.082 464.427 204.481 456.951 202.454 448.62C201.668 445.742 200.638 425.111 200.638 422.043V346.468C200.638 341.582 202.237 308.816 205.084 305.043C206.033 300.873 207.836 296.948 210.379 293.514C212.922 290.08 216.149 287.21 219.856 285.09V285.09Z" stroke="#8F73A6" stroke-width="3.09251" stroke-linecap="round" stroke-linejoin="round"/>
<path d="M244.848 305.857L319.742 262.423C322.967 260.577 345.709 248.85 349.206 248.144C356.015 246.364 363.182 246.505 369.915 248.552C372.409 249.366 388.889 258.08 391.247 259.41L466.114 302.681C467.008 303.197 473.107 306.618 474.029 307.025C480.393 310.239 487.747 310.888 494.575 308.844C499.752 309.441 532.849 292.339 537.538 289.624C540.753 287.748 544.309 286.527 547.998 286.033C551.687 285.538 555.439 285.78 559.033 286.746C564.752 285.661 597.117 301.867 602.403 304.853L670.168 343.971C673.632 345.947 676.67 348.591 679.107 351.751C681.544 354.911 683.333 358.521 684.371 362.376C687.57 366.611 689.386 395.304 689.386 400.788C689.386 402.797 689.765 413.411 690.118 415.338C691.614 423.192 695.441 430.41 701.095 436.051C707.604 441.165 714.413 445.889 721.479 450.194L782.359 485.484C787.103 488.199 810.983 504.134 813.043 509.02C818.714 514.743 821.882 522.485 821.852 530.547V619.261C821.852 622.519 820.795 645.62 820.009 648.688C818.299 655.442 814.753 661.588 809.763 666.442C807.513 668.668 788.078 681.101 785.232 682.729L708.414 727.032C701.689 730.949 693.685 732.035 686.16 730.045C682.799 730.561 665.207 722.553 662.009 721.413C656.425 719.431 650.976 716.961 645.745 717.449C639.809 717.992 625.226 718.21 625.226 724.996L622.895 727.928V747.5C622.895 751.138 621.079 760.883 619.019 763.788C617.907 765.363 617.094 767.127 615.901 768.566C615.142 776.438 578.333 802.2 571.421 806.218L443.453 880.219C440.214 882.124 436.628 883.362 432.904 883.862C429.179 884.361 425.395 884.109 421.769 883.123C416.076 884.182 384.118 868.193 378.968 865.207L244.713 787.568C241.502 785.728 238.687 783.271 236.431 780.334C234.174 777.399 232.521 774.044 231.566 770.466C227.717 766.014 225.494 728.172 225.494 722.119C225.462 718.41 226.164 714.735 227.56 711.301C228.955 707.864 231.017 704.742 233.626 702.112C235.524 696.683 267.156 675.753 272.388 672.739C275.619 670.888 278.451 668.415 280.723 665.462C282.992 662.505 284.656 659.131 285.615 655.529C289.41 651.104 291.606 614.945 291.606 608.919V530.656C291.636 522.593 288.467 514.851 282.796 509.129C280.736 504.243 256.856 488.308 252.113 485.566C250.378 484.534 241.27 478.888 239.861 477.612C233.823 472.392 229.504 465.464 227.473 457.741C226.306 449.554 225.618 441.307 225.413 433.038V362.647C225.413 357.218 227.229 328.497 230.428 324.263C231.49 320.389 233.313 316.768 235.789 313.608C238.265 310.448 241.344 307.812 244.848 305.857V305.857Z" stroke="#A0649C" stroke-width="3.3199" stroke-linecap="round" stroke-linejoin="round"/>
<path d="M269.894 326.733L337.469 287.642C341.047 285.579 360.373 276.051 364.277 275.209C370.454 273.732 376.911 273.89 383.007 275.671C385.717 276.539 399.785 283.815 402.361 285.253L469.963 324.317C470.939 324.887 476.116 327.737 477.119 328.226C482.876 331.076 489.455 331.79 495.686 330.235C501.433 330.886 529.596 316.879 534.773 313.947C540.693 310.48 547.684 309.329 554.398 310.716C560.768 309.522 588.524 322.769 594.298 326.108L656.126 361.86C662.74 365.688 666.481 372.257 669.679 378.609C672.39 383.821 675.236 407.873 675.236 413.899C675.236 416.125 675.643 425.219 676.022 427.473C677.47 434.74 680.969 441.439 686.106 446.774C691.971 451.709 698.197 456.199 704.727 460.211L761.162 492.787C766.42 495.827 785.747 510.296 788.918 515.264C792.767 521.29 796.589 527.832 796.589 535.488V615.271C796.378 624.123 795.7 632.959 794.556 641.738C792.881 647.781 789.691 653.297 785.286 657.755C778.29 663.135 771.007 668.13 763.466 672.712L694.454 712.617C688.271 716.206 680.988 717.395 673.989 715.956C670.249 716.553 655.015 710.12 651.518 708.898C646.721 707.082 641.755 705.755 636.691 704.935C632.056 706.075 617.121 703.74 617.121 709.17L614.546 711.097V729.122C614.546 732.027 613.407 742.179 611.429 744.215C610.751 745.828 609.905 747.367 608.908 748.803C608.04 757.544 577.221 780.374 569.496 784.826L451.775 852.936C445.817 856.406 438.791 857.557 432.042 856.167C425.699 857.334 398.295 844.222 392.548 840.91L269.894 769.869C263.98 766.497 259.535 761.038 257.425 754.558C253.142 749.645 250.676 717.585 250.676 710.853C250.647 704.023 253.148 697.426 257.696 692.339C259.81 686.177 286.32 668.043 292.121 664.677C298.076 661.275 302.559 655.781 304.698 649.258C308.926 644.344 311.339 613.642 311.339 606.964V535.461C311.339 527.805 307.544 521.29 303.695 515.237C300.523 510.296 281.17 495.773 275.911 492.732C273.96 491.592 266.289 486.679 264.608 485.24C259.058 480.351 255.023 473.974 252.98 466.862C251.657 459.329 250.896 451.706 250.703 444.059V378.908C250.703 372.827 253.549 348.803 256.259 343.618C259.485 337.13 263.226 330.56 269.894 326.733V326.733Z" stroke="#B05692" stroke-width="3.57003" stroke-linecap="round" stroke-linejoin="round"/>
<path d="M294.859 347.527L355.169 312.644C362.903 308.471 370.961 304.929 379.267 302.057C384.821 300.884 390.575 301.06 396.045 302.572C402.003 304.934 407.814 307.654 413.447 310.716L473.758 345.572C474.815 346.197 479.179 348.504 480.155 349.02C485.576 351.49 491.431 349.726 496.744 351.246C502.87 352.983 526.262 341.039 531.981 337.673C537.701 334.306 544.179 336.18 549.709 334.144C556.404 331.673 579.878 343.129 586.22 346.794L642.194 379.152C647.854 382.896 652.391 388.116 655.313 394.245C658.485 399.919 661.439 419.899 661.439 426.577C661.496 430.733 661.784 434.886 662.307 439.01C663.692 445.693 666.858 451.874 671.469 456.899C676.681 461.655 682.335 465.898 688.356 469.576L740.291 499.627C746.091 502.966 761.975 515.508 765.174 521.073C769.028 526.695 771.267 533.267 771.652 540.075V611.009C771.462 618.878 770.72 626.726 769.429 634.49C767.844 639.846 765.011 644.751 761.162 648.796C755.107 653.761 748.712 658.297 742.025 662.369L680.63 697.849C674.849 700.705 668.414 701.981 661.981 701.541C657.834 701.541 645.176 697.334 641.218 696.112C636.773 694.559 632.249 693.245 627.665 692.176C624.196 693.045 609.071 689.054 609.071 693.126L606.36 694.022V710.5C606.36 712.671 605.52 722.905 604.056 724.426C603.533 725.935 602.88 727.398 602.104 728.796C601.156 738.433 576.272 758.304 567.788 763.218L460.178 825.6C454.594 828.83 448.278 829.047 442.315 829.156C435.24 829.292 412.498 820.252 406.156 816.587L294.832 752.224C289.41 749.047 286.076 743.727 283.04 738.65C279.3 732.515 275.613 706.944 275.613 699.56C276.08 693.487 278.075 687.629 281.414 682.539C284.857 676.241 305.105 660.279 311.502 656.587C316.923 653.384 320.365 648.036 323.428 643.014C327.115 636.933 330.72 612.366 330.72 605.009V540.265C330.324 533.46 328.082 526.89 324.241 521.263C320.935 515.834 305.267 503.156 299.358 499.79C295.791 497.646 292.343 495.306 289.031 492.786C283.967 488.226 280.221 482.384 278.188 475.874C276.687 468.993 275.844 461.986 275.668 454.945V395.006C275.668 388.328 278.622 368.348 281.794 362.701C284.672 356.537 289.193 351.286 294.859 347.527V347.527Z" stroke="#C14788" stroke-width="3.82016" stroke-linecap="round" stroke-linejoin="round"/>
<path d="M319.85 368.484L372.897 337.808C379.7 334.119 386.891 331.196 394.337 329.094C399.252 328.201 404.301 328.386 409.137 329.637C414.455 331.548 419.614 333.88 424.56 336.614L477.607 367.262C478.772 367.941 482.052 369.732 483.272 370.275C487.934 372.393 493.138 371.551 497.855 372.664C504.631 374.32 522.982 365.66 529.217 362.05C534.177 359.173 540.059 359.797 545.101 358.195C552.473 355.834 571.285 364.14 578.197 368.131L628.343 397.123C633.591 400.47 637.906 405.093 640.893 410.56C644.579 416.587 647.561 432.549 647.561 439.851C647.613 443.652 647.938 447.444 648.537 451.198C649.843 457.287 652.638 462.958 656.669 467.703C661.225 472.267 666.313 476.268 671.821 479.621L719.256 507.065C725.572 510.73 737.878 521.29 741.239 527.507C744.492 532.822 746.357 538.87 746.66 545.097V607.208C746.511 614.111 745.695 620.985 744.221 627.731C742.725 632.392 740.247 636.678 736.956 640.299C731.877 644.922 726.366 649.049 720.503 652.624L666.752 683.679C661.54 686.364 655.755 687.743 649.892 687.697C645.365 687.914 635.146 685.118 630.918 683.761C626.689 682.403 622.786 681.046 618.775 679.852C616.443 680.422 601.183 674.748 601.183 677.463H598.066V692.285C598.066 693.723 597.496 704.012 596.521 705.016C596.168 706.455 595.518 707.731 595.165 709.197C592.59 719.458 575.188 736.642 565.945 741.989L468.635 798.291C463.674 800.802 458.199 802.121 452.642 802.146C444.917 802.634 426.675 796.255 419.79 792.264L319.959 734.524C315.383 731.549 311.569 727.542 308.818 722.824C304.454 716.336 300.686 696.411 300.686 688.348C300.979 682.881 302.538 677.555 305.24 672.794C308.683 665.79 324.025 652.624 330.991 648.606C335.618 645.593 339.478 641.54 342.267 636.77C346.577 630.282 350.209 611.09 350.209 603.082V545.097C349.911 538.87 348.046 532.819 344.788 527.507C341.399 521.29 329.12 510.73 322.805 507.065C319.53 505.116 316.397 502.939 313.426 500.55C308.826 496.335 305.351 491.033 303.316 485.131C301.649 478.931 300.738 472.549 300.605 466.129V411.293C300.605 403.964 303.587 388.029 307.273 382.003C310.247 376.497 314.578 371.844 319.85 368.484V368.484Z" stroke="#D1387E" stroke-width="4.07028" stroke-linecap="round" stroke-linejoin="round"/>
<path d="M344.842 389.359L390.597 362.892C396.454 359.664 402.773 357.348 409.327 356.024C413.61 355.432 417.966 355.633 422.175 356.621C426.886 358.008 431.432 359.911 435.728 362.294L481.32 388.762C482.594 389.495 484.952 390.717 486.254 391.287C490.333 392.693 494.564 393.602 498.858 394.001C506.285 395.413 519.621 390.146 526.37 386.237C530.702 383.911 535.462 382.499 540.357 382.084C548.706 381.08 562.584 384.961 570.174 389.278L614.492 414.904C619.33 417.852 623.429 421.875 626.473 426.658C631.04 434.674 633.528 443.709 633.71 452.936C633.737 456.381 634.081 459.815 634.74 463.197C636.019 468.719 638.529 473.879 642.086 478.29C645.937 482.715 650.467 486.499 655.503 489.502L698.466 514.341C706.294 519.132 712.813 525.791 717.44 533.723C720.048 538.764 721.476 544.335 721.614 550.011V603.299C721.487 609.231 720.576 615.119 718.904 620.808C717.486 624.774 715.364 628.456 712.642 631.667C708.544 635.921 703.906 639.618 698.845 642.661L652.765 669.319C648.109 671.827 642.969 673.309 637.694 673.662C631.815 673.798 625.949 673 620.32 671.3C616.63 670.215 613.009 668.909 609.477 667.391C608.312 667.69 592.861 660.333 592.861 661.691L589.5 660.605V673.988C589.487 677.856 589.226 681.719 588.714 685.552C588.551 686.91 588.199 688.267 587.955 689.543C585.922 700.808 573.833 714.897 563.831 720.707L476.848 771.009C472.473 773.357 467.67 774.788 462.726 775.216C454.431 776.167 440.661 772.312 433.207 767.996L344.842 716.879C340.719 714.322 337.152 710.961 334.352 706.998C329.256 700.211 325.624 685.878 325.624 677.137C325.773 672.272 326.906 667.486 328.958 663.075C332.265 655.284 342.836 644.969 350.399 640.598C354.573 638 358.178 634.585 360.997 630.554C366.012 623.822 369.617 609.841 369.617 601.154V549.902C369.473 544.226 368.047 538.658 365.442 533.615C360.824 525.669 354.302 518.999 346.468 514.205C343.5 512.446 340.695 510.418 338.092 508.151C333.972 504.275 330.768 499.527 328.714 494.252C326.862 488.701 325.873 482.894 325.786 477.042V427.391C325.96 418.167 328.437 409.133 332.997 401.114C336.011 396.352 340.06 392.334 344.842 389.359V389.359Z" stroke="#E22A74" stroke-width="4.29767" stroke-linecap="round" stroke-linejoin="round"/>
<path d="M696.677 554.734V599.2C696.685 605.962 694.912 612.608 691.538 618.463C688.163 624.321 683.308 629.183 677.459 632.563L638.995 654.796C633.154 658.178 626.524 659.956 619.777 659.956C613.031 659.956 606.401 658.178 600.559 654.796L581.314 643.666V665.898C581.309 672.655 579.53 679.29 576.158 685.14C572.784 690.992 567.934 695.852 562.096 699.234L485.196 743.7C479.352 747.087 472.717 748.874 465.965 748.874C459.213 748.874 452.577 747.087 446.733 743.7L369.833 699.234C363.989 695.854 359.137 690.995 355.765 685.145C352.391 679.292 350.615 672.655 350.615 665.898C350.618 659.142 352.396 652.504 355.768 646.654C359.143 640.802 363.992 635.942 369.833 632.563C375.702 629.197 380.581 624.34 383.975 618.482C387.368 612.624 389.157 605.973 389.16 599.2V554.734C389.163 547.98 387.39 541.343 384.023 535.493C380.654 529.64 375.808 524.781 369.969 521.399C364.13 518.016 359.284 513.157 355.917 507.304C352.548 501.454 350.775 494.817 350.778 488.063V443.57C350.775 436.814 352.551 430.174 355.923 424.321C359.297 418.471 364.152 413.612 369.996 410.235L408.459 388.002C414.301 384.617 420.928 382.833 427.678 382.833C434.427 382.833 441.054 384.617 446.896 388.002L485.359 410.235C491.203 413.612 497.83 415.387 504.577 415.387C511.324 415.387 517.951 413.612 523.795 410.235C529.642 406.855 536.275 405.074 543.027 405.074C549.779 405.074 556.412 406.855 562.259 410.235L600.722 432.495C606.563 435.874 611.412 440.734 614.787 446.586C618.159 452.436 619.937 459.074 619.94 465.83C619.937 472.587 621.713 479.227 625.085 485.08C628.459 490.93 633.314 495.789 639.158 499.166L677.621 521.426C683.433 524.819 688.25 529.684 691.595 535.528C694.939 541.376 696.69 547.997 696.677 554.734V554.734Z" stroke="#F21B6A" stroke-width="4.5478" stroke-linecap="round" stroke-linejoin="round"/>
</svg>
