<svg width="40" height="40" viewBox="0 0 40 40" fill="none" xmlns="http://www.w3.org/2000/svg">
<mask id="mask0_97_348" style="mask-type:alpha" maskUnits="userSpaceOnUse" x="0" y="0" width="40" height="40">
<rect width="40" height="40" fill="#D9D9D9"/>
</mask>
<g mask="url(#mask0_97_348)">
<path d="M20 20C20.9167 20 21.7013 19.6737 22.354 19.021C23.0067 18.3683 23.333 17.5837 23.333 16.667C23.333 15.7503 23.0067 14.9657 22.354 14.313C21.7013 13.6597 20.9167 13.333 20 13.333C19.0833 13.333 18.2987 13.6597 17.646 14.313C16.9933 14.9657 16.667 15.7503 16.667 16.667C16.667 17.5837 16.9933 18.3683 17.646 19.021C18.2987 19.6737 19.0833 20 20 20ZM20 37.708C15.278 33.6807 11.7433 29.9517 9.396 26.521C7.04867 23.0903 5.875 19.9167 5.875 17C5.875 12.5833 7.29167 9.06933 10.125 6.45799C12.9583 3.84733 16.25 2.54199 20 2.54199C23.722 2.54199 27.0067 3.84733 29.854 6.45799C32.7013 9.06933 34.125 12.5833 34.125 17C34.125 19.9167 32.9513 23.0903 30.604 26.521C28.2567 29.9517 24.722 33.6807 20 37.708Z" fill="#F21B6A"/>
</g>
</svg>
