<svg width="142" height="76" viewBox="0 0 142 76" fill="none" xmlns="http://www.w3.org/2000/svg">
<path fill-rule="evenodd" clip-rule="evenodd" d="M88.8462 50.0343L103.836 26.0426H112.187L116.705 50.0373H108.97L108.319 45.2183H98.4281L95.6898 50.0373H88.8465H88.8443H81.4193C81.3736 49.1465 81.4992 47.3319 81.7956 44.5933C81.8871 43.6359 81.9327 42.9787 81.9327 42.6226C81.9327 41.888 81.7444 41.3704 81.3681 41.0697C80.9914 40.7691 80.2556 40.6189 79.1602 40.6189H76.2855L74.2317 50.0373H67.352L72.5889 25.9234H84.0205C85.983 25.9234 87.2834 25.968 87.9224 26.0571C89.474 26.2796 90.5807 26.8139 91.2422 27.6602C91.8584 28.4174 92.1666 29.3636 92.1666 30.499C92.1666 31.078 92.098 31.6901 91.961 32.3358C91.5048 34.4065 90.421 35.8984 88.7096 36.8114C87.5915 37.4127 86.2452 37.8246 84.671 38.0471L84.6367 38.1807C86.4163 38.2253 87.6258 38.5702 88.2648 39.2161C88.8124 39.7504 89.086 40.6522 89.086 41.9213C89.086 42.3444 89.0517 43.0681 88.9835 44.0923C88.7782 47.0731 88.7326 49.0536 88.8461 50.0343H88.8462ZM38.4613 76H83.3256L84.995 67.7816H40.1307L38.4613 76ZM41.2022 63.2464H86.0665L87.7359 55.028H42.8716L41.2022 63.2464ZM50.1789 20.972H95.0429L96.7126 12.7533H51.8483L50.1789 20.972ZM52.9198 8.21839H97.7838L99.4535 0H54.5892L52.9198 8.21839ZM118.213 50.0373L123.449 25.9311H142L141.007 30.5516H129.233L128.138 35.5735H139.228L138.201 40.194H127.112L126.016 45.3499H138.064L137.037 50.0373H118.213ZM22.487 50.0373L27.7235 25.9311H46.274L45.2814 30.5516H33.5075L32.4124 35.5735H43.5018L42.4749 40.194H31.3856L30.2904 45.3499H42.3382L41.3113 50.0373H22.487ZM0.236004 42.1794H7.01317C6.92319 42.6052 6.87819 42.9567 6.87819 43.2334C6.87819 44.9159 8.02458 45.7567 10.3172 45.7567C12.7224 45.7567 14.1274 44.8837 14.5318 43.1375C14.5768 42.9248 14.5991 42.7223 14.5991 42.5305C14.5991 41.7427 14.0374 41.1998 12.9134 40.9015L7.28282 39.4324C4.09103 38.6018 2.49503 36.9939 2.49503 34.609C2.49503 34.1404 2.55106 33.6403 2.66364 33.1077C3.13576 31.0635 4.31578 29.3917 6.20382 28.0927C8.33922 26.6233 11.1153 25.8887 14.5318 25.8887C20.2413 25.8887 23.0961 27.6348 23.0961 31.1272C23.0961 31.7023 23.0061 32.4052 22.8263 33.2354H15.9818C16.0941 32.8097 16.1502 32.4476 16.1502 32.1493C16.1502 30.7439 15.2738 30.0413 13.5204 30.0413C12.5537 30.0413 11.722 30.27 11.0254 30.728C10.3286 31.1859 9.91261 31.766 9.77795 32.4689C9.73296 32.6607 9.71025 32.8415 9.71025 33.0121C9.71025 33.8849 10.3736 34.4918 11.6996 34.8326L15.9818 35.9506C17.8475 36.4404 19.151 36.9302 19.8926 37.42C21.1517 38.2291 21.781 39.4002 21.781 40.9336C21.781 41.4447 21.7137 41.9983 21.5787 42.5946C21.0393 45.0648 19.5892 46.9494 17.2292 48.2483C15.0714 49.441 12.3854 50.0373 9.17096 50.0373C5.01244 50.0373 2.27006 49.1214 0.944021 47.2902C0.31464 46.4384 0 45.3947 0 44.1599C0 43.6489 0.0786348 42.9885 0.236004 42.1794ZM43.9593 50.0373L49.1729 25.853H62.5437C62.9704 25.8871 63.3355 25.9299 63.6394 25.981C65.2138 26.2726 66.4117 26.8556 67.2332 27.7304C67.9862 28.538 68.3626 29.5135 68.3626 30.6574C68.3626 31.0611 68.3171 31.4762 68.2258 31.9024C67.6096 34.706 65.4536 36.5455 61.7571 37.4203L61.7228 37.4877C64.9401 38.0707 66.5488 39.5737 66.5488 41.9959C66.5488 43.5211 66.1151 44.9061 65.248 46.1513C64.3812 47.3962 63.2228 48.3549 61.774 49.0278C60.3252 49.7006 58.0265 50.0373 54.8773 50.0373H43.9593ZM54.9116 30.1529L53.748 35.536H56.9654C58.1747 35.536 58.9962 35.4352 59.4297 35.2333C60.388 34.7624 60.9811 33.9772 61.2094 32.8781C61.4147 31.936 61.2549 31.2184 60.7301 30.7247C60.3195 30.3435 59.6237 30.1529 58.6425 30.1529H54.9116ZM52.8239 39.8428L51.592 45.596H55.3907C57.741 45.596 59.1216 44.6539 59.5322 42.7698C59.6008 42.4784 59.635 42.209 59.635 41.9623C59.635 40.5492 58.5626 39.8428 56.4176 39.8428H52.8239ZM100.995 40.7982H107.703L106.711 30.7285H106.608L100.995 40.7982ZM78.51 30.3654L77.2436 36.277H79.8109C81.2709 36.277 82.2293 36.2102 82.6858 36.0766C83.9863 35.698 84.7851 34.7851 85.0817 33.3378C85.1499 33.0263 85.1842 32.748 85.1842 32.5031C85.1842 31.5677 84.728 30.9442 83.8153 30.6327C83.2678 30.4545 82.3548 30.3654 81.0773 30.3654H78.51Z" fill="white"/>
</svg>
