<svg width="207" height="135" viewBox="0 0 207 135" fill="none" xmlns="http://www.w3.org/2000/svg">
<path d="M141.398 1.53859C140.928 1.53914 140.466 1.66424 140.06 1.90116L125.22 10.4579C124.814 10.6938 124.476 11.0323 124.242 11.4395C124.007 11.8467 123.883 12.3083 123.882 12.7783V29.928C123.882 30.3976 124.006 30.859 124.241 31.2656C124.476 31.6723 124.814 32.01 125.22 32.2448L131.177 35.6893C131.664 35.9724 132.068 36.3782 132.349 36.8661C132.631 37.354 132.779 37.9071 132.78 38.4702V55.6344C132.779 56.1984 132.63 56.7523 132.348 57.2409C132.066 57.7295 131.661 58.1357 131.174 58.419L125.22 61.8561C124.814 62.091 124.476 62.4287 124.241 62.8354C124.006 63.242 123.882 63.7034 123.882 64.173V71.0619C123.884 71.5313 124.008 71.9922 124.242 72.3987C124.477 72.8051 124.814 73.143 125.22 73.3787L148.976 87.0984C149.383 87.3319 149.844 87.4547 150.314 87.4547C150.783 87.4547 151.245 87.3319 151.652 87.0984L175.408 73.3787C175.813 73.143 176.151 72.8051 176.385 72.3987C176.62 71.9922 176.744 71.5313 176.745 71.0619V67.5812C176.746 67.0174 176.894 66.4635 177.176 65.9753C177.458 65.4871 177.864 65.0818 178.352 64.8C178.84 64.5181 179.394 64.3698 179.958 64.3699C180.522 64.3699 181.076 64.5183 181.564 64.8002L184.581 66.5406C184.988 66.774 185.449 66.8968 185.919 66.8968C186.388 66.8968 186.849 66.774 187.256 66.5406L202.086 57.9549C202.492 57.7201 202.83 57.3823 203.065 56.9757C203.3 56.569 203.423 56.1076 203.424 55.638V38.4847C203.423 38.0151 203.3 37.5538 203.065 37.1471C202.83 36.7404 202.492 36.4027 202.086 36.1679L187.22 27.5858C186.732 27.3025 186.327 26.8963 186.046 26.4078C185.764 25.9192 185.615 25.3653 185.614 24.8012V17.9124C185.614 17.4427 185.49 16.9814 185.255 16.5747C185.02 16.168 184.683 15.8303 184.276 15.5955L169.411 7.01706C169.003 6.78362 168.542 6.6608 168.073 6.6608C167.603 6.6608 167.142 6.78362 166.735 7.01706L160.807 10.4579C160.318 10.7384 159.764 10.886 159.201 10.886C158.637 10.886 158.083 10.7384 157.594 10.4579L142.729 1.87941C142.323 1.65132 141.864 1.5338 141.398 1.53859V1.53859ZM150.296 87.9831C149.732 87.9826 149.178 87.8338 148.69 87.5517L124.934 73.8319C124.446 73.5498 124.041 73.1444 123.759 72.6563C123.477 72.1682 123.328 71.6146 123.328 71.051V64.1621C123.328 63.5984 123.476 63.0447 123.758 62.5565C124.04 62.0684 124.446 61.663 124.934 61.3812L130.887 57.9549C131.293 57.7195 131.631 57.3817 131.866 56.9751C132.1 56.5685 132.224 56.1075 132.225 55.638V38.4811C132.224 38.0121 132.1 37.5515 131.866 37.1455C131.631 36.7395 131.293 36.4024 130.887 36.1679L124.93 32.7234C124.443 32.44 124.038 32.0337 123.757 31.5451C123.476 31.0565 123.328 30.5026 123.328 29.9389V12.7892C123.328 12.225 123.476 11.6708 123.758 11.1821C124.04 10.6934 124.446 10.2874 124.934 10.0047L139.799 1.42982C140.288 1.14823 140.842 1 141.405 1C141.969 1 142.523 1.14823 143.012 1.42982L157.877 10.0047C158.284 10.2381 158.746 10.3609 159.215 10.3609C159.684 10.3609 160.146 10.2381 160.553 10.0047L166.506 6.56747C166.995 6.28588 167.549 6.13765 168.113 6.13765C168.676 6.13765 169.23 6.28588 169.719 6.56747L184.584 15.1423C185.072 15.425 185.478 15.8311 185.76 16.3198C186.042 16.8085 186.19 17.3627 186.19 17.9269V24.8157C186.191 25.2852 186.315 25.7463 186.55 26.1528C186.785 26.5594 187.122 26.8972 187.528 27.1326L202.394 35.7147C202.882 35.998 203.287 36.4041 203.568 36.8927C203.85 37.3813 203.999 37.9352 204 38.4992V55.6489C203.999 56.2134 203.85 56.7677 203.567 57.2563C203.285 57.745 202.879 58.1509 202.39 58.4335L187.525 67.0083C187.036 67.2899 186.482 67.4381 185.919 67.4381C185.355 67.4381 184.801 67.2899 184.312 67.0083L181.296 65.268C180.889 65.0331 180.428 64.9095 179.958 64.9095C179.488 64.9094 179.027 65.033 178.62 65.2678C178.213 65.5026 177.876 65.8404 177.641 66.2471C177.406 66.6538 177.282 67.1151 177.282 67.5848V71.0655C177.281 71.6291 177.133 72.1827 176.851 72.6708C176.569 73.1589 176.164 73.5643 175.676 73.8464L151.92 87.5662C151.425 87.8468 150.865 87.9908 150.296 87.9831V87.9831Z" fill="#0CE8F6"/>
<path d="M130.59 14.9864C130.237 15.1904 129.94 15.4792 129.727 15.8268C129.513 16.1744 129.39 16.5697 129.368 16.9769C129.31 17.0603 129.277 20.4069 129.277 20.5084V28.63C129.277 28.7243 129.306 31.846 129.357 31.9222C129.377 32.3297 129.498 32.7258 129.709 33.0746C129.921 33.4235 130.216 33.714 130.568 33.9199L130.786 34.0432C130.927 34.1266 135.601 36.8967 135.659 37.0453C136.067 37.3151 136.402 37.6819 136.633 38.1128C136.865 38.5437 136.986 39.0253 136.986 39.5144V49.177C136.986 49.3003 136.953 54.1587 136.895 54.253C136.878 54.7368 136.74 55.2085 136.493 55.6252C136.247 56.0419 135.9 56.3904 135.485 56.6387C135.445 56.6786 133.491 57.8135 133.44 57.8425C133.389 57.8715 130.456 59.5937 130.416 59.6553C130.075 59.8701 129.793 60.1666 129.595 60.518C129.398 60.8694 129.291 61.2646 129.285 61.6676C129.285 61.6966 129.285 62.8315 129.285 62.8605C129.285 62.9729 129.325 67.476 129.397 67.5739C129.417 67.9757 129.537 68.366 129.747 68.7093C129.957 69.0526 130.249 69.3378 130.597 69.5391L147.054 79.0421C147.152 79.1001 150.988 81.2719 151.097 81.2538C151.456 81.4366 151.855 81.5271 152.257 81.5169C152.66 81.5068 153.054 81.3964 153.403 81.1958L168.004 72.7478C168.152 72.6608 173.232 69.6225 173.232 69.452L173.805 69.0677C174.14 68.84 174.414 68.534 174.603 68.1764C174.793 67.8188 174.892 67.4203 174.893 67.0156V65.9278C174.893 65.8916 174.893 64.5682 174.943 64.5501C174.994 64.5319 174.972 64.0497 174.987 64.0497C175.007 63.7825 175.07 63.5203 175.176 63.2738C175.43 62.6773 175.894 62.1949 176.481 61.9178C177.128 61.6051 177.868 61.5419 178.558 61.7401C178.802 61.8105 179.037 61.909 179.258 62.0338C179.334 62.0664 181.832 63.4841 181.912 63.4587C182.273 63.6441 182.676 63.7359 183.082 63.7258C183.488 63.7157 183.885 63.6039 184.236 63.4007L194.2 57.6503C194.254 57.6177 196.814 56.1275 196.85 56.0804C197.19 55.8724 197.473 55.5827 197.672 55.2376C197.872 54.8924 197.982 54.5029 197.992 54.1044C198.014 54.05 198.025 51.0841 198.025 51.0225V39.5144C198.025 39.1067 197.923 38.7055 197.729 38.3471C197.534 37.9887 197.254 37.6846 196.912 37.4623C196.872 37.3716 193.989 35.6712 193.899 35.6204L186.858 31.556C186.778 31.5088 184.08 29.928 184.026 29.8555C183.61 29.5947 183.265 29.2351 183.021 28.8088C182.778 28.3825 182.643 27.9026 182.63 27.4118C182.612 27.3465 182.601 25.026 182.601 24.9572C182.601 24.8883 182.568 21.5091 182.51 21.4293C182.489 21.0218 182.367 20.6261 182.153 20.2784C181.94 19.9306 181.642 19.642 181.288 19.4388L172.75 14.5078C172.652 14.4498 168.598 12.162 168.49 12.1801C168.132 11.9973 167.734 11.9068 167.333 11.9169C166.931 11.9271 166.539 12.0375 166.191 12.2381C166.082 12.2998 161.195 15.0807 161.068 15.0807C160.643 15.304 160.17 15.4186 159.69 15.4142C159.211 15.4097 158.74 15.2864 158.32 15.0553C158.265 15.0372 156.064 13.7754 156.014 13.7464L146.822 8.44198C146.797 8.44198 145.633 7.75672 145.604 7.74947C145.253 7.55459 144.86 7.44992 144.458 7.44485C144.057 7.43979 143.661 7.5345 143.305 7.72046C143.222 7.72046 139.937 9.59134 139.865 9.63484L130.59 14.9864ZM130.267 14.4281L139.473 9.11637C139.549 9.07286 142.903 7.15485 142.986 7.14035C143.409 6.9125 143.882 6.79321 144.362 6.79321C144.843 6.79321 145.315 6.9125 145.738 7.14035C145.833 7.14035 149.538 9.26865 149.621 9.31578L158.465 14.4208C158.575 14.4839 158.69 14.5385 158.809 14.584C159.121 14.7045 159.455 14.7575 159.788 14.7394C160.122 14.7213 160.448 14.6324 160.745 14.4788C160.865 14.5114 165.76 11.745 165.868 11.6798C166.29 11.4364 166.766 11.3017 167.252 11.2877C167.739 11.2738 168.222 11.3811 168.656 11.6C168.82 11.571 174.004 14.5006 174.153 14.5767L181.611 18.8804C182.038 19.1265 182.397 19.4745 182.657 19.8934C182.916 20.3122 183.068 20.7889 183.098 21.2807C183.192 21.404 183.246 26.2697 183.246 26.4256C183.246 26.4546 183.246 27.2667 183.246 27.2921C183.252 27.7032 183.361 28.1063 183.562 28.4647C183.764 28.8231 184.051 29.1255 184.399 29.3443C184.439 29.3987 186.299 30.4936 186.357 30.5263L192.931 34.3224C193.068 34.4022 197.282 36.8894 197.325 37.0344C197.735 37.3059 198.072 37.6749 198.305 38.1083C198.538 38.5417 198.66 39.0261 198.659 39.5181V50.0327C198.659 50.1233 198.641 54.1152 198.609 54.1986C198.595 54.6793 198.462 55.1491 198.221 55.5655C197.981 55.982 197.64 56.3321 197.231 56.5844C197.173 56.6569 193.717 58.6728 193.638 58.7199L184.548 63.9663C184.127 64.2088 183.653 64.343 183.168 64.3569C182.682 64.3708 182.201 64.264 181.767 64.0461C181.695 64.0461 179.2 62.6719 179.124 62.6611C178.77 62.4667 178.374 62.3605 177.97 62.3517C177.566 62.3429 177.166 62.4316 176.803 62.6103C176.49 62.7643 176.216 62.9875 176.002 63.2629C175.752 63.583 175.603 63.9706 175.574 64.376L175.527 64.9924V67.3129C175.525 67.7991 175.403 68.2772 175.171 68.7044C174.938 69.1315 174.604 69.4943 174.197 69.7602C174.139 69.9053 169.099 72.8856 168.957 72.9654L153.729 81.7723C153.304 82.015 152.826 82.1495 152.337 82.1638C151.853 82.1781 151.373 82.0709 150.941 81.852C150.898 81.852 149.491 81.0725 149.436 81.0725C149.313 81.0725 145.47 78.8971 145.361 78.8282L130.278 70.1264C129.86 69.8834 129.508 69.5401 129.255 69.1274C129.002 68.7148 128.855 68.2458 128.828 67.7625C128.73 67.6501 128.668 62.0084 128.654 61.8562C128.651 61.5905 128.685 61.3256 128.755 61.0694C128.94 60.3883 129.367 59.7979 129.955 59.4088C129.988 59.2638 134.832 56.3813 134.948 56.287C135.408 56.014 135.769 55.6029 135.981 55.1123C136.09 54.8643 136.153 54.5992 136.17 54.3292C136.286 54.2385 136.358 48.6984 136.358 48.5497V39.5144C136.359 39.1039 136.256 38.6999 136.061 38.339C135.865 37.9781 135.582 37.6718 135.238 37.4478C135.198 37.3644 132.649 35.8561 132.566 35.809C132.483 35.7618 130.14 34.3877 130.086 34.3188C129.663 34.0576 129.311 33.6951 129.063 33.264C128.815 32.833 128.678 32.3469 128.665 31.8497C128.643 31.7844 128.632 29.6271 128.632 29.5582V21.9877C128.632 21.8318 128.686 16.9479 128.781 16.8283C128.814 16.3397 128.967 15.8667 129.226 15.4512C129.485 15.0357 129.843 14.6905 130.267 14.4462V14.4281Z" fill="#23C8F1"/>
<path d="M135.978 19.5222C135.681 19.697 135.428 19.9381 135.239 20.2268C135.05 20.5155 134.931 20.8439 134.89 21.1864C134.774 21.3495 134.712 23.9818 134.712 24.1848V31.1245C134.712 31.313 134.767 33.7676 134.868 33.9236C134.908 34.2679 135.026 34.5985 135.215 34.8892C135.404 35.1799 135.657 35.4228 135.956 35.5986L136.141 35.7074C136.427 35.8706 140.064 38.1113 140.176 38.4122C140.505 38.6659 140.771 38.9918 140.953 39.3646C141.135 39.7374 141.229 40.1472 141.228 40.5623V48.6621C141.228 48.905 141.163 52.6976 141.047 52.9042C141.009 53.3062 140.88 53.6942 140.67 54.0386C140.459 54.3831 140.173 54.6747 139.832 54.8911C139.752 54.9672 138.229 55.8628 138.135 55.9208C137.987 56.0042 135.728 57.3711 135.644 57.5053C135.369 57.6981 135.143 57.9526 134.983 58.2485C134.824 58.5444 134.736 58.8734 134.727 59.2093C134.727 59.2637 134.727 60.152 134.727 60.2101C134.727 60.4348 134.807 63.9482 134.948 64.1186C134.986 64.4516 135.102 64.771 135.287 65.0507C135.471 65.3305 135.719 65.5627 136.011 65.7284L149.825 73.705C150.02 73.8174 153.041 75.4671 153.258 75.4345C153.567 75.565 153.902 75.6225 154.236 75.6024C154.571 75.5823 154.896 75.4851 155.187 75.3184L167.598 68.1069C167.891 67.9365 171.818 65.4565 171.818 65.112L172.246 64.7495C172.739 64.463 173.047 63.5385 173.047 62.9656V62.0302C173.047 61.6445 173.084 61.2597 173.156 60.8808C173.181 60.8808 173.207 60.4929 173.236 60.4892C173.279 60.2883 173.355 60.0959 173.461 59.92C173.606 59.474 174.186 59.2529 174.617 59.0099C175.049 58.767 175.886 58.8613 176.368 58.9846C176.574 59.0517 176.773 59.1366 176.963 59.2384C177.115 59.3036 179.091 60.3696 179.251 60.3514C179.568 60.4867 179.912 60.546 180.255 60.5246C180.599 60.5032 180.933 60.4017 181.231 60.2282L189.439 55.493C189.544 55.4277 191.524 54.2602 191.615 54.166C191.888 53.9867 192.116 53.7457 192.28 53.4623C192.444 53.179 192.539 52.8611 192.557 52.5344C192.601 52.422 192.626 50.1269 192.626 49.9964V40.5514C192.626 40.2042 192.546 39.8617 192.391 39.5509C192.236 39.2401 192.011 38.9695 191.734 38.7603C191.654 38.5826 189.407 37.2085 189.233 37.1069L183.217 33.6335C183.054 33.5392 180.944 32.2775 180.832 32.1288C180.487 31.8917 180.202 31.5789 179.997 31.2144C179.792 30.8499 179.673 30.4434 179.65 30.0259C179.61 29.8954 179.588 28.0716 179.588 27.9302C179.588 27.7272 179.523 25.0985 179.407 24.9354C179.367 24.5926 179.248 24.2637 179.059 23.9749C178.871 23.686 178.617 23.4451 178.319 23.2712L171.144 19.1596C170.944 19.0436 167.761 17.3032 167.543 17.3467C167.237 17.2143 166.904 17.1555 166.571 17.1751C166.238 17.1946 165.914 17.2919 165.625 17.4591C165.404 17.586 161.579 19.7107 161.333 19.7071C160.973 19.8753 160.58 19.9583 160.183 19.9495C159.786 19.9407 159.396 19.8403 159.045 19.6563C158.936 19.6237 157.232 18.6484 157.119 18.594L149.487 14.1887C149.437 14.1561 148.53 13.6412 148.472 13.6195C148.177 13.4644 147.85 13.3791 147.517 13.3703C147.184 13.3615 146.853 13.4294 146.55 13.5687C146.384 13.5687 143.817 14.9973 143.65 15.0843L135.978 19.5222ZM135.615 18.8695L143.24 14.4462C143.392 14.3591 146.01 12.8835 146.181 12.8581C146.537 12.682 146.929 12.5903 147.326 12.5903C147.724 12.5903 148.116 12.682 148.472 12.8581C148.661 12.8798 151.554 14.5042 151.735 14.5984L159.077 18.8369C159.168 18.8912 159.262 18.9385 159.36 18.9783C159.615 19.0814 159.888 19.1328 160.163 19.1297C160.438 19.1266 160.71 19.069 160.963 18.9602C161.206 19.0218 165.038 16.9262 165.259 16.7848C165.614 16.579 166.012 16.4576 166.421 16.43C166.83 16.4023 167.24 16.4691 167.62 16.6252C167.942 16.5636 172.047 18.8007 172.333 18.9566L178.664 22.6113C179.03 22.8201 179.344 23.1105 179.58 23.4601C179.817 23.8097 179.97 24.2091 180.027 24.6272C180.219 24.8701 180.328 28.7061 180.328 29.0252C180.328 29.076 180.328 29.7177 180.328 29.7503C180.34 30.1034 180.433 30.4489 180.601 30.7597C180.769 31.0705 181.007 31.3381 181.296 31.5414C181.376 31.6538 182.833 32.5313 182.956 32.6002L188.62 35.8633C188.895 36.0228 192.173 38.0387 192.289 38.3252C192.619 38.5839 192.886 38.9141 193.07 39.2909C193.254 39.6677 193.35 40.0813 193.351 40.5006V49.2241C193.351 49.4054 193.315 52.5126 193.246 52.6794C193.221 53.077 193.105 53.4634 192.906 53.8087C192.707 54.1539 192.432 54.4487 192.1 54.6699C191.988 54.8113 189.309 56.403 189.149 56.4828L181.597 60.8337C181.245 61.0395 180.85 61.161 180.443 61.1886C180.036 61.2163 179.628 61.1494 179.251 60.9932C179.099 61.0222 177.133 59.9853 176.978 59.9635C176.675 59.8139 176.344 59.728 176.007 59.7111C175.67 59.6943 175.332 59.7469 175.016 59.8656C174.755 59.9643 174.517 60.1147 174.316 60.3079C174.153 60.5617 173.888 60.7612 173.888 61.0802L173.805 61.5806V63.5457C173.803 63.9548 173.706 64.3578 173.523 64.7237C173.34 65.0896 173.076 65.4086 172.75 65.6559C172.638 65.9532 168.725 68.3462 168.443 68.5057L155.535 75.9638C155.176 76.1718 154.774 76.2958 154.36 76.3264C153.956 76.3529 153.552 76.2859 153.178 76.1306C153.088 76.1487 151.971 75.5614 151.88 75.5614C151.637 75.5614 148.617 73.8863 148.389 73.7485L135.604 66.3665C135.252 66.1645 134.95 65.8836 134.724 65.5459C134.497 65.2081 134.352 64.8227 134.299 64.4195C134.1 64.1947 133.973 59.7858 133.937 59.4849C133.932 59.2601 133.958 59.0358 134.013 58.8178C134.146 58.2437 134.471 57.7322 134.934 57.3675C135.003 57.0774 138.737 54.7497 138.965 54.5575C139.347 54.3213 139.657 53.9869 139.865 53.5895C139.968 53.3923 140.038 53.179 140.071 52.9586C140.307 52.7773 140.434 48.4482 140.434 48.1473V40.5514C140.435 40.1997 140.354 39.8527 140.197 39.5379C140.041 39.2231 139.812 38.9494 139.531 38.7385C139.451 38.5681 137.457 37.3499 137.29 37.252C137.124 37.1541 135.293 36.0591 135.184 35.9249C134.835 35.684 134.545 35.3669 134.337 34.9976C134.128 34.6283 134.006 34.2164 133.98 33.793C133.94 33.6625 133.918 31.9802 133.918 31.8206V25.2943C133.918 24.9789 134.027 21.1284 134.216 20.8854C134.275 20.4628 134.431 20.0594 134.671 19.7067C134.911 19.3539 135.229 19.0612 135.601 18.8514L135.615 18.8695Z" fill="#3AA8EC"/>
<path d="M141.362 24.0217C141.114 24.1641 140.898 24.3566 140.728 24.5869C140.558 24.8172 140.438 25.0804 140.376 25.3596C140.205 25.6025 140.107 27.5169 140.107 27.8214V33.5827C140.107 33.8691 140.191 35.6566 140.339 35.885C140.399 36.1659 140.516 36.4315 140.682 36.6654C140.849 36.8993 141.062 37.0965 141.307 37.2447L141.46 37.3317C141.888 37.5819 144.491 39.2896 144.658 39.7392C144.904 39.9773 145.1 40.2629 145.234 40.5789C145.367 40.8948 145.435 41.2345 145.434 41.5774V48.1037C145.434 48.4663 145.336 51.1929 145.158 51.501C145.106 51.821 144.989 52.127 144.815 52.4006C144.641 52.6742 144.414 52.9096 144.146 53.0927C144.027 53.2088 142.935 53.8614 142.79 53.9448C142.569 54.0753 140.978 55.0796 140.84 55.2936C140.628 55.4632 140.454 55.6755 140.329 55.9165C140.204 56.1576 140.131 56.4221 140.115 56.6931C140.115 56.7765 140.093 57.4182 140.093 57.5016C140.093 57.8424 140.212 60.3623 140.423 60.6197C140.482 60.8814 140.594 61.128 140.754 61.3439C140.913 61.5599 141.115 61.7404 141.347 61.8742L152.522 68.328C152.816 68.4984 155.016 69.6297 155.343 69.5753C155.6 69.6562 155.871 69.6829 156.138 69.6535C156.406 69.6242 156.665 69.5395 156.898 69.4049L167.159 63.4804C167.601 63.223 170.371 61.305 170.371 60.7902L170.658 60.4602C170.988 60.2717 171.194 59.3254 171.194 58.9447V58.1724C171.194 57.8585 171.248 57.547 171.354 57.2514C171.394 57.2297 171.434 56.9723 171.477 56.965C171.539 56.8278 171.628 56.7045 171.738 56.6024C171.832 56.3051 172.463 56.2943 172.746 56.1311C173.029 55.9679 173.834 56.1782 174.167 56.2652C174.336 56.3244 174.499 56.3959 174.657 56.4792C174.885 56.5734 176.339 57.3022 176.582 57.2768C176.852 57.3597 177.135 57.386 177.415 57.3542C177.696 57.3224 177.966 57.2331 178.21 57.0919L184.682 53.3828C184.842 53.2885 186.237 52.4401 186.35 52.2951C186.554 52.1435 186.725 51.9505 186.849 51.7287C186.974 51.507 187.051 51.2614 187.075 51.0079C187.144 50.3491 187.178 49.6871 187.177 49.0247V41.5774C187.177 41.2915 187.119 41.0085 187.005 40.7463C186.891 40.4842 186.723 40.2486 186.513 40.0546C186.39 39.7827 184.78 38.7385 184.515 38.5862L179.523 35.7038C178.848 35.3147 178.202 34.8773 177.59 34.3949C177.318 34.1809 177.092 33.9149 176.925 33.6123C176.757 33.3097 176.652 32.9766 176.615 32.6328C176.554 32.0571 176.523 31.4786 176.524 30.8997C176.524 30.5951 176.426 28.6771 176.256 28.4378C176.192 28.158 176.072 27.8943 175.901 27.6634C175.731 27.4325 175.515 27.2394 175.266 27.0963L169.523 23.7824C169.226 23.6083 166.909 22.4155 166.579 22.4735C166.325 22.3936 166.057 22.3675 165.792 22.3969C165.527 22.4262 165.272 22.5103 165.041 22.6439C164.708 22.8361 161.952 24.3045 161.579 24.3009C161.287 24.4101 160.975 24.459 160.664 24.4447C160.352 24.4303 160.047 24.3531 159.766 24.2175C159.607 24.174 158.374 23.4923 158.225 23.4017L152.156 19.8847C152.076 19.8376 151.43 19.4714 151.34 19.4424C151.104 19.3226 150.846 19.2547 150.582 19.243C150.314 19.2279 150.046 19.2687 149.795 19.3626C149.549 19.3626 147.696 20.3524 147.475 20.4793L141.362 24.0217ZM140.934 23.2748L147.007 19.7687C147.775 19.3285 148.566 18.9279 149.375 18.5686C149.665 18.4447 149.977 18.3809 150.292 18.3809C150.607 18.3809 150.919 18.4447 151.209 18.5686C151.488 18.6012 153.573 19.7324 153.823 19.8775L159.668 23.2494C159.741 23.2912 159.816 23.3287 159.893 23.3618C160.292 23.5374 160.742 23.5632 161.158 23.4343C161.521 23.525 164.295 22.1037 164.624 21.9115C164.914 21.7426 165.235 21.634 165.568 21.5923C165.9 21.5505 166.238 21.5765 166.561 21.6686C167.046 21.5743 170.067 23.1189 170.509 23.3582L175.712 26.3603C176.017 26.5361 176.285 26.7714 176.498 27.0522C176.711 27.3331 176.865 27.6538 176.952 27.9955C177.235 28.358 177.398 31.168 177.398 31.6429C177.398 31.7191 177.398 32.1904 177.416 32.2666C177.434 32.5622 177.513 32.8508 177.649 33.1142C177.784 33.3776 177.973 33.6099 178.203 33.7966C178.629 34.1453 179.083 34.4593 179.559 34.7357L184.319 37.4731C184.729 37.7088 187.089 39.2606 187.26 39.6884C187.512 39.9341 187.712 40.2279 187.849 40.5524C187.985 40.8769 188.055 41.2254 188.054 41.5774V48.5279C188.054 48.8035 188 51.0225 187.894 51.2726C187.859 51.5866 187.759 51.89 187.601 52.1638C187.443 52.4376 187.231 52.676 186.977 52.8643C186.237 53.4123 185.468 53.9183 184.671 54.3799L178.656 57.8533C178.369 58.0193 178.051 58.1258 177.721 58.1663C177.392 58.2068 177.057 58.1805 176.738 58.089C176.51 58.1361 175.07 57.4472 174.838 57.4182C174.332 57.2013 173.77 57.1493 173.232 57.2696C173.024 57.3165 172.825 57.3947 172.641 57.5016C172.529 57.6684 172.209 57.7192 172.209 57.9331L172.068 58.1724V59.7677C172.064 60.1005 171.993 60.4291 171.859 60.7338C171.725 61.0385 171.531 61.3129 171.289 61.5407C171.122 61.9866 168.337 63.7922 167.913 64.0388L157.344 70.1554C157.051 70.3258 156.727 70.4344 156.39 70.4745C156.064 70.5149 155.732 70.489 155.415 70.3983C155.285 70.4237 154.462 70.0358 154.327 70.0358C153.965 70.0358 151.742 68.8646 151.427 68.6797L140.941 62.6248C140.655 62.4613 140.405 62.2413 140.206 61.9783C140.007 61.7153 139.864 61.4147 139.785 61.0947C139.487 60.7611 139.299 57.585 139.259 57.1318C139.254 56.9493 139.27 56.7669 139.306 56.5879C139.392 56.1226 139.617 55.6942 139.951 55.3588C140.057 54.9201 142.678 53.1508 143.026 52.8607C143.328 52.6602 143.587 52.4013 143.787 52.0993C143.887 51.9522 143.964 51.7909 144.016 51.6207C144.378 51.3488 144.578 48.227 144.578 47.7774V41.5774C144.578 41.2831 144.518 40.9919 144.4 40.7223C144.282 40.4527 144.109 40.2105 143.893 40.0111C143.769 39.761 142.334 38.8291 142.08 38.6841C141.477 38.3338 140.898 37.9438 140.347 37.5166C140.067 37.296 139.834 37.0223 139.661 36.7111C139.488 36.3999 139.379 36.0576 139.339 35.7038C139.279 35.1559 139.249 34.6052 139.248 34.0541V28.5647C139.248 28.0897 139.411 25.2689 139.698 24.9064C139.783 24.5652 139.937 24.2449 140.149 23.9645C140.362 23.6842 140.629 23.4496 140.934 23.2748Z" fill="#5187E7"/>
<path d="M146.75 28.5394C146.352 28.766 146.044 29.1234 145.88 29.551C145.651 29.8737 145.517 31.0738 145.517 31.4799V36.0628C145.517 36.4253 145.63 37.5602 145.829 37.8756C145.986 38.3066 146.283 38.6721 146.674 38.9126L146.797 38.9851C147.366 39.315 148.933 40.4934 149.157 41.0917C149.479 41.534 149.652 42.0674 149.651 42.6145V47.5817C149.651 48.0712 149.524 49.7281 149.288 50.1415C149.149 50.6151 148.863 51.0326 148.472 51.3343C148.151 51.5835 147.813 51.81 147.461 52.0123C147.167 52.1827 146.213 52.8354 146.047 53.1218C145.764 53.4187 145.587 53.8014 145.546 54.2095C145.528 54.3219 145.517 54.7099 145.517 54.8259C145.517 55.2791 145.68 56.8092 145.96 57.15C146.112 57.5314 146.389 57.8497 146.746 58.0528L155.278 62.9801C155.669 63.2049 157.054 63.8213 157.486 63.7488C157.895 63.808 158.313 63.7276 158.671 63.5204L166.746 58.8541C167.34 58.5133 168.954 57.1536 168.954 56.4683L169.095 56.1674C169.262 56.0732 169.364 55.1087 169.364 54.9165V54.3292C169.364 54.1733 169.447 53.7128 169.581 53.633C169.628 53.604 169.686 53.4663 169.741 53.459C169.825 53.3824 169.929 53.332 170.042 53.314C170.089 53.1653 170.767 53.3647 170.901 53.285C171.035 53.2052 171.833 53.5279 171.989 53.5714C172.144 53.6149 172.246 53.6838 172.373 53.7454C172.677 53.8723 173.609 54.2639 173.932 54.2277C174.374 54.2951 174.825 54.2094 175.212 53.9847L179.925 51.2727C180.342 51.0287 180.735 50.7471 181.1 50.4315C181.385 50.1875 181.578 49.8537 181.648 49.4852C181.736 49.013 181.781 48.5336 181.782 48.053V42.6145C181.783 42.1563 181.628 41.7113 181.343 41.3527C181.176 40.9901 180.201 40.265 179.849 40.0765L175.879 37.7814C175.342 37.4718 174.845 37.0993 174.396 36.6719C173.997 36.2899 173.729 35.791 173.631 35.247C173.55 34.7934 173.508 34.3336 173.508 33.8728C173.508 33.4668 173.381 32.263 173.145 31.944C172.978 31.5159 172.67 31.1577 172.271 30.9287L167.921 28.4197C167.522 28.1913 166.075 27.5496 165.636 27.6257C165.235 27.57 164.826 27.6505 164.476 27.8541C164.034 28.1116 162.344 28.9201 161.844 28.9128C161.39 29.0241 160.911 28.9859 160.481 28.8041C160.082 28.6381 159.694 28.4467 159.32 28.2312L154.814 25.6279C154.705 25.5699 154.313 25.356 154.197 25.3161C154.02 25.2347 153.83 25.1844 153.635 25.1675C153.433 25.1462 153.228 25.1596 153.03 25.2074C152.7 25.2074 151.579 25.7548 151.268 25.9325L146.75 28.5394ZM146.268 27.6982L150.778 25.095C151.348 24.7676 151.948 24.4956 152.569 24.2828C153.015 24.1359 153.497 24.1359 153.943 24.2828C154.634 24.5041 155.299 24.7982 155.927 25.1602L160.278 27.6656C160.303 27.6656 160.412 27.7417 160.441 27.7526C160.731 27.8906 161.053 27.9446 161.372 27.9085C161.855 28.0354 163.57 27.2813 164.012 27.0275C164.467 26.7616 164.996 26.6485 165.52 26.7048C166.169 26.5779 168.105 27.4299 168.693 27.749L172.768 30.1021C173.265 30.3873 173.656 30.8246 173.885 31.3493C174.247 31.8352 174.483 33.619 174.483 34.2499C174.482 34.4194 174.491 34.5889 174.508 34.7575C174.556 35.2367 174.767 35.6848 175.107 36.0265C175.423 36.3422 175.779 36.6152 176.165 36.8387L180.016 39.0649C180.563 39.3803 182.003 40.4608 182.231 41.03C182.572 41.492 182.755 42.0513 182.753 42.6253V47.8029C182.753 48.4863 182.683 49.1679 182.543 49.8369C182.446 50.2986 182.205 50.7175 181.854 51.0334C181.344 51.491 180.787 51.8944 180.194 52.2371L175.712 54.8223C175.263 55.0828 174.742 55.1945 174.226 55.1413C173.921 55.203 173.007 54.8622 172.699 54.8223C172.295 54.6945 171.873 54.6285 171.448 54.6265C171.271 54.6265 171.108 54.6265 170.963 54.6482C170.908 54.7316 170.531 54.6482 170.531 54.7389L170.343 54.7896V56.0441C170.335 56.5686 170.159 57.0768 169.842 57.4944C169.617 58.0854 167.96 59.3073 167.395 59.6336L159.168 64.3869C158.942 64.5171 158.697 64.6124 158.443 64.6697C158.193 64.7231 157.936 64.7354 157.681 64.706C157.385 64.6751 157.091 64.6266 156.8 64.561C156.318 64.561 154.908 63.8975 154.476 63.6509L146.289 58.9193C145.844 58.6676 145.491 58.2784 145.285 57.8099C144.886 57.3639 144.636 55.4205 144.585 54.815C144.573 54.6751 144.573 54.5343 144.585 54.3944C144.627 54.034 144.751 53.6879 144.948 53.3829C145.086 52.7991 146.601 51.57 147.062 51.2074C147.289 51.0437 147.499 50.8579 147.689 50.6527C147.785 50.5548 147.868 50.4452 147.936 50.3264C148.403 49.9638 148.686 48.0494 148.686 47.4512V42.6072C148.688 42.1293 148.524 41.6655 148.222 41.2947C148.055 40.9575 147.171 40.3121 146.837 40.12C146.349 39.8359 145.894 39.4978 145.481 39.112C145.062 38.717 144.778 38.199 144.672 37.6327C144.592 37.1925 144.552 36.7459 144.553 36.2984V31.8497C144.553 31.2188 144.77 29.4313 145.147 28.9491C145.377 28.4227 145.77 27.9842 146.268 27.6982V27.6982Z" fill="#6867E2"/>
<path d="M156.285 31.0339C155.864 31.0331 155.45 31.1432 155.085 31.3529L152.138 33.0534C151.772 33.2653 151.469 33.5693 151.257 33.9351C151.046 34.3009 150.935 34.7158 150.934 35.1382V38.5391C150.935 38.9616 151.046 39.3764 151.257 39.7422C151.469 40.1081 151.772 40.4121 152.138 40.6239C152.666 40.9307 153.105 41.3707 153.41 41.9C153.716 42.4293 153.877 43.0294 153.878 43.6405V47.0414C153.877 47.6525 153.716 48.2526 153.41 48.7819C153.105 49.3113 152.666 49.7513 152.138 50.0581C151.772 50.2689 151.468 50.5724 151.256 50.9381C151.045 51.3038 150.934 51.7187 150.934 52.141C150.934 52.5634 151.045 52.9783 151.256 53.344C151.468 53.7097 151.772 54.0132 152.138 54.224L158.029 57.6286C158.395 57.8388 158.809 57.9495 159.231 57.9495C159.653 57.9495 160.068 57.8388 160.433 57.6286L166.325 54.224C166.69 54.013 166.994 53.7097 167.205 53.3444C167.417 52.9792 167.528 52.5648 167.529 52.1428V50.4424C167.528 50.3479 167.553 50.255 167.6 50.173C167.646 50.091 167.714 50.0229 167.796 49.9754C167.877 49.928 167.97 49.9029 168.065 49.9028C168.159 49.9026 168.252 49.9274 168.334 49.9747L169.809 50.8267C170.175 51.037 170.589 51.1476 171.011 51.1476C171.433 51.1476 171.847 51.037 172.213 50.8267L175.161 49.1262C175.526 48.9141 175.829 48.61 176.041 48.2443C176.252 47.8785 176.363 47.4638 176.365 47.0414V43.6405C176.364 43.2181 176.252 42.8033 176.041 42.4374C175.83 42.0716 175.526 41.7676 175.161 41.5557L172.213 39.8553C171.685 39.5485 171.246 39.1085 170.941 38.5792C170.635 38.0499 170.474 37.4497 170.473 36.8387C170.472 36.4162 170.361 36.0014 170.149 35.6356C169.938 35.2697 169.635 34.9657 169.269 34.7539L166.325 33.0534C165.959 32.8432 165.544 32.7325 165.121 32.7325C164.699 32.7325 164.284 32.8432 163.918 33.0534C163.388 33.3582 162.788 33.5186 162.177 33.5186C161.566 33.5186 160.966 33.3582 160.437 33.0534L157.489 31.3529C157.123 31.1427 156.708 31.0326 156.285 31.0339V31.0339ZM159.229 59.0426C158.619 59.0426 158.019 58.8826 157.489 58.5785L151.601 55.1739C151.071 54.8693 150.63 54.4301 150.324 53.9008C150.017 53.3715 149.856 52.7707 149.856 52.1592C149.856 51.5476 150.017 50.9469 150.324 50.4175C150.63 49.8882 151.071 49.4491 151.601 49.1444C151.965 48.9315 152.268 48.6272 152.478 48.2615C152.689 47.8958 152.8 47.4815 152.801 47.0596V43.6587C152.801 43.2366 152.69 42.822 152.479 42.4562C152.268 42.0904 151.966 41.7862 151.601 41.5739C151.072 41.2678 150.632 40.8281 150.326 40.2987C150.02 39.7693 149.858 39.1688 149.857 38.5573V35.1563C149.858 34.5448 150.02 33.9443 150.326 33.4149C150.632 32.8855 151.072 32.4458 151.601 32.1397L154.545 30.4393C155.075 30.1345 155.676 29.9741 156.287 29.9741C156.899 29.9741 157.499 30.1345 158.029 30.4393L160.973 32.1397C161.34 32.35 161.755 32.4606 162.177 32.4606C162.6 32.4606 163.015 32.35 163.381 32.1397C163.91 31.8349 164.51 31.6745 165.121 31.6745C165.732 31.6745 166.332 31.8349 166.862 32.1397L169.809 33.8402C170.338 34.147 170.777 34.587 171.082 35.1163C171.387 35.6456 171.549 36.2457 171.55 36.8568C171.55 37.2792 171.662 37.6941 171.873 38.0599C172.084 38.4257 172.388 38.7297 172.753 38.9416L175.701 40.642C176.23 40.9489 176.668 41.3888 176.974 41.9182C177.279 42.4475 177.44 43.0476 177.441 43.6587V47.0596C177.44 47.6711 177.279 48.2716 176.973 48.801C176.667 49.3304 176.227 49.7701 175.697 50.0762L172.753 51.7766C172.224 52.0814 171.624 52.2419 171.013 52.2419C170.402 52.2419 169.802 52.0814 169.273 51.7766L168.606 51.3923V52.1537C168.605 52.7648 168.443 53.3648 168.137 53.8936C167.831 54.4225 167.391 54.8615 166.862 55.1667L160.973 58.5676C160.444 58.8774 159.843 59.0413 159.229 59.0426V59.0426Z" fill="#7F47DD"/>
<path d="M24.0624 89.3029C19.8348 89.3029 16.1015 88.5451 12.8625 87.0295C9.76102 85.6335 7.12487 83.3774 5.26665 80.5286C3.43445 77.7126 2.51956 74.319 2.52198 70.3476V68.154H12.7139V70.3476C12.7139 73.6349 13.7327 76.1028 15.7704 77.7513C17.808 79.3998 20.572 80.2216 24.0624 80.2168C27.6156 80.2168 30.266 79.5122 32.0136 78.103C32.8451 77.4715 33.516 76.6529 33.9721 75.7137C34.4281 74.7745 34.6565 73.741 34.6387 72.6971C34.6981 71.3493 34.2344 70.0307 33.3443 69.0169C32.2935 67.957 31.0043 67.1638 29.5844 66.7037C27.6257 66.0159 25.6251 65.454 23.5947 65.0214L21.7818 64.6298C18.449 63.9368 15.2043 62.8727 12.1084 61.4573C9.44228 60.1811 7.38408 58.4975 5.93379 56.4067C4.4835 54.3158 3.7656 51.6002 3.7801 48.2597C3.7801 44.9216 4.57777 42.0633 6.17308 39.6848C7.84096 37.2457 10.1795 35.3416 12.9061 34.2027C15.8066 32.9216 19.2136 32.2823 23.127 32.2847C27.0403 32.2872 30.5259 32.9519 33.5836 34.2789C36.5174 35.5131 39.023 37.5836 40.7879 40.2323C42.5403 42.867 43.4153 46.1701 43.4129 50.1414V52.4909H33.2355V50.1414C33.2355 48.053 32.8306 46.3695 32.0209 45.0908C31.1954 43.7981 29.9727 42.8083 28.5366 42.27C26.8076 41.6311 24.9734 41.3248 23.1306 41.3672C19.9883 41.3672 17.6775 41.9545 16.1982 43.1293C14.7189 44.304 13.9756 45.9102 13.9684 47.9479C13.9299 49.181 14.3009 50.3923 15.0235 51.3923C15.8623 52.4342 16.9547 53.2432 18.196 53.7418C19.9372 54.4733 21.7486 55.0248 23.6019 55.3879L25.4148 55.7794C28.9242 56.4874 32.349 57.5642 35.6321 58.9918C38.5327 60.2971 40.7915 62.0193 42.4086 64.1585C44.0256 66.2976 44.8354 69.0399 44.8378 72.3852C44.9012 75.511 44.0164 78.5827 42.2998 81.1958C40.6078 83.7289 38.2052 85.7134 35.0919 87.1492C31.9786 88.585 28.3021 89.3029 24.0624 89.3029Z" fill="#0CE8F6"/>
<path d="M52.5027 88.2043V33.3797H76.3092C79.7561 33.3797 82.7594 33.984 85.3191 35.1926C87.7489 36.2794 89.8153 38.0412 91.2726 40.2686C92.6793 42.4609 93.3839 45.0461 93.3864 48.024V48.9631C93.3864 52.2504 92.6032 54.9093 91.0369 56.9397C89.5396 58.9228 87.5357 60.4658 85.2357 61.4065V62.8133C87.3241 62.9197 88.9424 63.6376 90.0906 64.967C91.2387 66.2964 91.8152 68.0682 91.82 70.2823V88.2188H81.4795V71.758C81.531 70.6557 81.1835 69.5719 80.5005 68.7051C79.8479 67.9196 78.7602 67.5268 77.2374 67.5268H62.8578V88.1934L52.5027 88.2043ZM62.8578 58.1289H75.236C77.687 58.1289 79.605 57.463 80.99 56.1311C82.375 54.7993 83.0675 53.0372 83.0675 50.8448V50.0617C83.0675 47.8669 82.3883 46.1048 81.0299 44.7753C79.6714 43.4459 77.7377 42.78 75.2287 42.7776H62.8578V58.1289Z" fill="#0CE8F6"/>
<path d="M102.016 88.2043V33.3797H112.353V88.2043H102.016Z" fill="#0CE8F6"/>
<path d="M24.0624 89.3029C19.8348 89.3029 16.1015 88.5451 12.8625 87.0295C9.76102 85.6335 7.12487 83.3774 5.26665 80.5286C3.43445 77.7126 2.51956 74.319 2.52198 70.3476V68.154H12.7139V70.3476C12.7139 73.6349 13.7327 76.1028 15.7704 77.7513C17.808 79.3998 20.572 80.2216 24.0624 80.2168C27.6156 80.2168 30.266 79.5122 32.0136 78.103C32.8451 77.4715 33.516 76.6529 33.9721 75.7137C34.4281 74.7745 34.6565 73.741 34.6387 72.6971C34.6981 71.3493 34.2344 70.0307 33.3443 69.0169C32.2935 67.957 31.0043 67.1638 29.5844 66.7037C27.6257 66.0159 25.6251 65.454 23.5947 65.0214L21.7818 64.6298C18.449 63.9368 15.2043 62.8727 12.1084 61.4573C9.44228 60.1811 7.38408 58.4975 5.93379 56.4067C4.4835 54.3158 3.7656 51.6002 3.7801 48.2597C3.7801 44.9216 4.57777 42.0633 6.17308 39.6848C7.84096 37.2457 10.1795 35.3416 12.9061 34.2027C15.8066 32.9216 19.2136 32.2823 23.127 32.2847C27.0403 32.2872 30.5259 32.9519 33.5836 34.2789C36.5174 35.5131 39.023 37.5836 40.7879 40.2323C42.5403 42.867 43.4153 46.1701 43.4129 50.1414V52.4909H33.2355V50.1414C33.2355 48.053 32.8306 46.3695 32.0209 45.0908C31.1954 43.7981 29.9727 42.8083 28.5366 42.27C26.8076 41.6311 24.9734 41.3248 23.1306 41.3672C19.9883 41.3672 17.6775 41.9545 16.1982 43.1293C14.7189 44.304 13.9756 45.9102 13.9684 47.9479C13.9299 49.181 14.3009 50.3923 15.0235 51.3923C15.8623 52.4342 16.9547 53.2432 18.196 53.7418C19.9372 54.4733 21.7486 55.0248 23.6019 55.3879L25.4148 55.7794C28.9242 56.4874 32.349 57.5642 35.6321 58.9918C38.5327 60.2971 40.7915 62.0193 42.4086 64.1585C44.0256 66.2976 44.8354 69.0399 44.8378 72.3852C44.9012 75.511 44.0164 78.5827 42.2998 81.1958C40.6078 83.7289 38.2052 85.7134 35.0919 87.1492C31.9786 88.585 28.3021 89.3029 24.0624 89.3029Z" fill="#0CE8F6"/>
<path d="M52.5027 88.2043V33.3797H76.3092C79.7561 33.3797 82.7594 33.984 85.3191 35.1926C87.7489 36.2794 89.8153 38.0412 91.2726 40.2686C92.6793 42.4609 93.3839 45.0461 93.3864 48.024V48.9631C93.3864 52.2504 92.6032 54.9093 91.0369 56.9397C89.5396 58.9228 87.5357 60.4658 85.2357 61.4065V62.8133C87.3241 62.9197 88.9424 63.6376 90.0906 64.967C91.2387 66.2964 91.8152 68.0682 91.82 70.2823V88.2188H81.4795V71.758C81.531 70.6557 81.1835 69.5719 80.5005 68.7051C79.8479 67.9196 78.7602 67.5268 77.2374 67.5268H62.8578V88.1934L52.5027 88.2043ZM62.8578 58.1289H75.236C77.687 58.1289 79.605 57.463 80.99 56.1311C82.375 54.7993 83.0675 53.0372 83.0675 50.8448V50.0617C83.0675 47.8669 82.3883 46.1048 81.0299 44.7753C79.6714 43.4459 77.7377 42.78 75.2287 42.7776H62.8578V58.1289Z" fill="#0CE8F6"/>
<path d="M102.016 88.2043V33.3797H112.353V88.2043H102.016Z" fill="#0CE8F6"/>
<path d="M7.21379 115.397H13.9468V120.14H7.21379V133.838H2V100.655H15.7778V105.394H7.21379V115.397Z" fill="#7F47DD"/>
<path d="M29.8638 114.639H37.0246V119.378H29.8638V129.099H38.8701V133.838H24.6609V100.655H38.881V105.394H29.8638V114.639Z" fill="#7F47DD"/>
<path d="M55.4796 100.274C60.5556 100.274 63.1589 103.309 63.1589 108.613V109.658H58.2279V108.284C58.2279 105.912 57.2816 105.02 55.621 105.02C53.9604 105.02 53.0141 105.92 53.0141 108.284C53.0141 115.111 63.2024 116.391 63.2024 125.868C63.2024 131.18 60.5484 134.207 55.4288 134.207C50.3093 134.207 47.6553 131.173 47.6553 125.868V123.834H52.5863V126.205C52.5863 128.577 53.6305 129.429 55.2874 129.429C56.9444 129.429 57.9886 128.577 57.9886 126.205C57.9886 119.378 47.7967 118.098 47.7967 108.617C47.7967 103.309 50.4036 100.274 55.4796 100.274Z" fill="#7F47DD"/>
<path d="M71.0303 100.655H87.1502V105.394H81.7117V133.838H76.4797V105.394H71.0412L71.0303 100.655Z" fill="#7F47DD"/>
<path d="M95.7793 100.655H100.993V133.838H95.7793V100.655Z" fill="#7F47DD"/>
<path d="M119.006 127.725L122.994 100.655H127.78L122.66 133.838H114.883L109.764 100.655H115.025L119.006 127.725Z" fill="#7F47DD"/>
<path d="M152.243 133.838H146.975L146.072 127.815H139.68L138.781 133.838H133.991L139.299 100.655H146.935L152.243 133.838ZM140.343 123.323H145.368L142.856 106.54L140.343 123.323Z" fill="#7F47DD"/>
<path d="M161.013 100.655H166.227V129.099H174.809V133.838H161.032L161.013 100.655Z" fill="#7F47DD"/>
</svg>
