<svg width="32" height="32" viewBox="0 0 32 32" fill="none" xmlns="http://www.w3.org/2000/svg">
<path d="M29.2875 8.72481C29.1726 8.26396 28.9477 7.83785 28.632 7.48299C28.3163 7.12812 27.9193 6.8551 27.475 6.68731C23.2 5.03731 16.375 5.04981 16 5.04981C15.625 5.04981 8.8 5.03731 4.525 6.68731C4.08068 6.8551 3.68366 7.12812 3.36799 7.48299C3.05231 7.83785 2.82739 8.26396 2.7125 8.72481C2.3875 9.96231 2 12.2373 2 15.9998C2 19.7623 2.3875 22.0373 2.7125 23.2748C2.82739 23.7357 3.05231 24.1618 3.36799 24.5166C3.68366 24.8715 4.08068 25.1445 4.525 25.3123C8.625 26.8998 15.05 26.9498 15.9125 26.9498H16.0875C16.95 26.9498 23.375 26.8998 27.475 25.3123C27.9193 25.1445 28.3163 24.8715 28.632 24.5166C28.9477 24.1618 29.1726 23.7357 29.2875 23.2748C29.6125 22.0373 30 19.7623 30 15.9998C30 12.2373 29.6125 9.96231 29.2875 8.72481ZM20.275 16.4123L14.275 20.4123C14.1954 20.4709 14.0988 20.5016 14 20.4998C13.9172 20.4967 13.8361 20.4754 13.7625 20.4373C13.6826 20.3957 13.6158 20.3329 13.5694 20.2556C13.5231 20.1784 13.4991 20.0899 13.5 19.9998V11.9998C13.4991 11.9098 13.5231 11.8212 13.5694 11.744C13.6158 11.6668 13.6826 11.6039 13.7625 11.5623C13.8422 11.5198 13.932 11.4997 14.0222 11.5041C14.1124 11.5085 14.1998 11.5372 14.275 11.5873L20.275 15.5873C20.3447 15.6312 20.4022 15.6921 20.442 15.7642C20.4818 15.8364 20.5027 15.9174 20.5027 15.9998C20.5027 16.0822 20.4818 16.1633 20.442 16.2354C20.4022 16.3075 20.3447 16.3684 20.275 16.4123Z" fill="#F21B6A"/>
</svg>
